<svg xmlns="http://www.w3.org/2000/svg" viewBox="0 0 33.6 33.78"><defs><style>.cls-1{isolation:isolate;}.cls-2{opacity:0.5;mix-blend-mode:multiply;}.cls-3{fill:#1cb1f1;}.cls-4{fill:#fff;}.cls-5{opacity:0.35;}</style></defs><g class="cls-1"><g id="Warstwa_2" data-name="Warstwa 2"><g id="Warstwa_1-2" data-name="Warstwa 1"><g id="About_me" data-name="About me"><g class="cls-2"><circle class="cls-3" cx="17.36" cy="17.53" r="16.25" transform="translate(-3.65 30.46) rotate(-76.9)"/></g><circle class="cls-3" cx="16.25" cy="16.25" r="16.25" transform="translate(-6.73 16.25) rotate(-45)"/><path class="cls-4" d="M11.78,15.56s0,0,0-.06a.57.57,0,0,0,.49-.06c.16,0,.19.08.32-.06a2,2,0,0,0,.12-.25,1.17,1.17,0,0,0,.34-1.22c0-.27.06-.5,0-.57s0,.42-.12,0c.1.1,0-.27-.11-.53-.5-.58-.78-.85-1.3-.1h0c-.19.34.11-.06.11-.06v0c0,.1-.07.19-.11.29v0c-.25.08-.29.38-.27.71,0,0,0,.05,0,.05a0,0,0,0,0,0,0s0,.09,0,.13a3,3,0,0,0-.09.89,1,1,0,0,0,.24.57,2.07,2.07,0,0,0,.37.54s-.1-.25-.15-.35l.12.06A.56.56,0,0,0,11.78,15.56Zm.11-.69a.46.46,0,0,0,.15-.2.28.28,0,0,1,0,.16C12,14.91,11.91,14.91,11.89,14.87Zm1-1.31v0Zm-.14-.65c0,.05-.1,0,0,0Zm-.06-.06a0,0,0,0,1-.05,0S12.72,12.82,12.74,12.85Zm-.52-.56s0,0,0,.07S12.2,12.28,12.22,12.29Zm-.11.05c.08-.11.21.24.24.27a.35.35,0,0,0-.11-.1s.13.22.23.41a1.58,1.58,0,0,0-.5-.35Zm-.3.05s.09.08,0,0Zm-.15.15v0l0,0h0Zm-.2.48v0C11.4,13,11.43,13,11.46,13Zm0,.11v0S11.41,13.13,11.42,13.13Zm-.14.14c0-.13.08-.23,0,0Zm0,.13c.05,0,0,.06,0,0Z"/><path class="cls-4" d="M20.91,15.56s0,0,0-.06a.57.57,0,0,0,.49-.06c.15,0,.18.08.31-.06a1.14,1.14,0,0,0,.12-.25,1.2,1.2,0,0,0,.35-1.22c0-.27.05-.5,0-.57s0,.42-.12,0c.11.1,0-.27-.1-.53-.51-.58-.79-.85-1.3-.1h0c-.2.34.1-.06.1-.06v0c0,.1-.08.19-.11.29a.08.08,0,0,1,0,0c-.25.08-.29.38-.27.71,0,0,0,.05,0,.05l0,0s0,.09,0,.13a3.9,3.9,0,0,0-.09.89,1,1,0,0,0,.25.57,1.93,1.93,0,0,0,.36.54s-.09-.25-.14-.35l.11.06A.56.56,0,0,0,20.91,15.56Zm.11-.69a.56.56,0,0,0,.16-.2.38.38,0,0,1-.06.16C21.08,14.91,21.05,14.91,21,14.87Zm1.05-1.31v0S22.08,13.55,22.07,13.56Zm-.14-.65c0,.05-.1,0,0,0Zm-.06-.06a0,0,0,0,1-.05,0S21.86,12.82,21.87,12.85Zm-.52-.56s0,0,0,.07S21.33,12.28,21.35,12.29Zm-.1.05c.07-.11.2.24.23.27a.27.27,0,0,0-.11-.1s.14.22.23.41a1.58,1.58,0,0,0-.5-.35C21.15,12.5,21.2,12.4,21.25,12.34Zm-.31.05s.09.08,0,0Zm-.14.15a0,0,0,0,0,0,0l0,0h0Zm-.2.48,0,0C20.54,13,20.56,13,20.6,13Zm0,.11v0S20.54,13.13,20.56,13.13Zm-.14.14c0-.13.07-.23,0,0Zm0,.13s0,.06,0,0Z"/><path class="cls-4" d="M27.77,18a12.51,12.51,0,0,0,.14-1.49c.07-.08.09-.15,0-.21a12.44,12.44,0,0,0-.21-2.44,3.29,3.29,0,0,0-.29-1.25A12.33,12.33,0,0,0,26.3,10a11.5,11.5,0,0,0-1.74-2.3l-.15-.16-.21-.2a2.54,2.54,0,0,0-.6-.57c-.39-.33-.6-.63-.76-.52l-.18-.11v0a3.88,3.88,0,0,0-.81-.45c-.17-.09-.35-.17-.52-.24L21,5.24v0l-.12,0,0,0C19.71,4.71,18.34,4,17,4.18c-.15,0-.05.12.14.25l-.28,0,.3.06a9.68,9.68,0,0,0,1.19.61s1.13.58,1.07.39a2,2,0,0,0,.74,0l.72.37s0,0-.09.07L22,6.54a10.17,10.17,0,0,1,.81.62l.14.12c.17.13.58.6.85.77a11.86,11.86,0,0,1,2.74,4.28,10.21,10.21,0,0,0,.53,2.05,11.69,11.69,0,0,1-1.3,7.42,12.31,12.31,0,0,0-1,1.43,9.23,9.23,0,0,1-1,1.13,2.29,2.29,0,0,1-.72.32c-.22.07-.37.47-.54.67a9.15,9.15,0,0,1-1.64.87A11.53,11.53,0,0,1,7.61,23.09c-3.18-3.93-2.88-9.52-.16-13.62a10.76,10.76,0,0,1,6.27-4.16c.81-.24,2.09-1,.74-.82-.73,0-2.43,0-2.33.43-.61.3-1.23.1-1.79.92-.07.11.21,0,.39-.09l0,0a9.46,9.46,0,0,0-1,.57l-.28.19c-.1-.58-.58.23-.86.69l-.27.25a.78.78,0,0,1-.1-.23c-.35.15-.58.77-.81,1.24-.14.16-.26.33-.39.51H6.94c-.33,0-.51.62-.53.77,0,.3-1.48,2.13-1.06,2.62-.07.2-.12.41-.18.61a1.21,1.21,0,0,0-.32.54c.11,0,.16,0,.18.06a1.16,1.16,0,0,0,0,.18c-.32.05-.25.7-.37,1l.22-.12c0,.12,0,.23,0,.35a.43.43,0,0,0-.2-.15q-.07.45-.12.9c.12-.05.21,0,.26,0v.13a.36.36,0,0,1-.27,0c0,.52-.13.66.17.74a.14.14,0,0,0,.09,0c0,.14,0,.29,0,.43a2.21,2.21,0,0,0-.3-.2,2.3,2.3,0,0,0,.46,1.61l.12.6c-.23.2-.5.43-.06.75a.32.32,0,0,1,.16-.27h0c0,.15.08.3.13.45a1.07,1.07,0,0,1,.07.19,2.08,2.08,0,0,0,.36,1.58L6,21.62l.08.16a.47.47,0,0,0-.15.06c.41.19.46.66.6,1a.82.82,0,0,0,.09-.19c.14.21.29.42.45.62a.42.42,0,0,0-.34,0c.44.56,1,1,1.44,1.48a.79.79,0,0,1,.21-.06c.18.17.37.33.56.48A1.38,1.38,0,0,1,8.42,25a10.44,10.44,0,0,0,2.5,1.73.74.74,0,0,0,.08-.28l.39.18a1.06,1.06,0,0,0-.21.11.42.42,0,0,1,.34-.05l.2.08c.45.25.87.92,1.28.43l.25.07a2,2,0,0,0-.08.26c.23,0,.82.16.91.15a.39.39,0,0,0-.18-.26l.39.07,0,0a2.5,2.5,0,0,0,1,.34c-.16-.06-.19-.13-.09-.24h.17c.41,0,.83.05,1.25,0l0,.14.71.05a.33.33,0,0,1-.12-.21,9.94,9.94,0,0,0,1.21-.13c.05.23,1.8-.18,1.65-.35l0,0,.26-.08a.51.51,0,0,0,.43,0c.43-.13.2-.19.67-.36s1.17-.16,1.24-.59a12.9,12.9,0,0,1,1.23-.77,1,1,0,0,0,.44-.59l.32-.3c0,.09.09,0,.18-.17a12.41,12.41,0,0,0,1-1.23c0,.06,0,.13-.13.22.12.13.17,0,.16-.26l.25-.38s0,.1,0,.16a1.86,1.86,0,0,0,.18-.49,11.5,11.5,0,0,0,1-2c.09-.24.16-.48.23-.72a4.07,4.07,0,0,0,.37-1.38A.89.89,0,0,0,27.77,18ZM19.24,5.34l-.4-.24c.25,0,.39,0,.4.13A.2.2,0,0,1,19.24,5.34ZM5.86,10.84l.1,0a1,1,0,0,1-.07.15A.21.21,0,0,0,5.86,10.84ZM7.23,23.51l.28.33V24A2.13,2.13,0,0,1,7.23,23.51Zm3.16,2.76c0-.06-.05-.11-.07-.16l.11.06Z"/><path class="cls-4" d="M18.48,23.16c-.72-.08-1.45.06-2.17.05a8.68,8.68,0,0,1-2.21-.32,4.23,4.23,0,0,1-1.88-1.36,7.66,7.66,0,0,1-.85-1.05,3.7,3.7,0,0,1-.31-.59,1.49,1.49,0,0,0-.26-.5.3.3,0,0,0-.47.06,1.79,1.79,0,0,0,.2,1.27,6.45,6.45,0,0,0,.75,1.39A4.85,4.85,0,0,0,13.69,24a7.72,7.72,0,0,0,2.62.31c.75,0,1.9-.08,2.37-.78a.23.23,0,0,0-.2-.35Z"/><path class="cls-4" d="M14.26,11.69c0,.05,0-.08,0-.1a.71.71,0,0,0-.14-.1c-.14-.1-.27-.21-.41-.3s-.54-.29-.8-.45c-.52-.3-1-.66-1.56-.91A1.78,1.78,0,0,0,10,9.69,2.35,2.35,0,0,0,8.65,11c-.06.14.14.29.27.21.44-.31.74-.81,1.29-.95a1.56,1.56,0,0,1,1.07.26c.49.27,1,.57,1.44.83.24.13.49.26.74.37a3.2,3.2,0,0,0,.43.17.61.61,0,0,0,.3,0,.11.11,0,0,0,.07-.17Z"/><path class="cls-4" d="M21.13,9.89a3.83,3.83,0,0,0-2.45.52,4,4,0,0,0-1.6,1.95,4.17,4.17,0,0,0,1.41,4.74c1.42,1.09,3.65,1.5,4.91,0a7.2,7.2,0,0,0,1.28-2.71,4.88,4.88,0,0,0-.07-2.88,3.29,3.29,0,0,0-1.88-2,2.38,2.38,0,0,0-2.59.51c-.21.22.07.62.34.44a2.29,2.29,0,0,1,3.37,1.12,5.27,5.27,0,0,1-.67,4.58,2.27,2.27,0,0,1-1.89,1.25,3.72,3.72,0,0,1-2.09-.58A3.58,3.58,0,0,1,17.46,13a3.74,3.74,0,0,1,3.67-2.83.12.12,0,0,0,0-.24Z"/><g class="cls-5"><path class="cls-4" d="M21.13,10a3.75,3.75,0,0,0-3.6,5.5,4.33,4.33,0,0,0,2.34,2,3,3,0,0,0,2.66-.12,3.62,3.62,0,0,0,1.24-1.59,6.58,6.58,0,0,0,.73-3,3.43,3.43,0,0,0-1.31-2.67,2.35,2.35,0,0,0-2.85,0"/><path class="cls-4" d="M21.13,9.89a3.83,3.83,0,0,0-2.45.52,4,4,0,0,0-1.6,1.95,4.17,4.17,0,0,0,1.41,4.74c1.42,1.09,3.65,1.5,4.91,0a7.2,7.2,0,0,0,1.28-2.71,4.88,4.88,0,0,0-.07-2.88,3.29,3.29,0,0,0-1.88-2,2.38,2.38,0,0,0-2.59.51c-.21.22.07.62.34.44a2.29,2.29,0,0,1,3.37,1.12,5.27,5.27,0,0,1-.67,4.58,2.27,2.27,0,0,1-1.89,1.25,3.72,3.72,0,0,1-2.09-.58A3.58,3.58,0,0,1,17.46,13a3.74,3.74,0,0,1,3.67-2.83.12.12,0,0,0,0-.24Z"/></g><path class="cls-4" d="M24.22,13.12c-.1,2.52,0,5.06,0,7.59s-.13,5.06-.27,7.59l.63-.08a1.88,1.88,0,0,0-.19-.58c-.07-.15-.29-.09-.33,0a2.69,2.69,0,0,0-.11.62.32.32,0,0,0,.64,0c.13-2.53.19-5.06.2-7.59a66.3,66.3,0,0,0-.24-7.59.16.16,0,0,0-.32,0Z"/><path class="cls-4" d="M26,8.88A7.59,7.59,0,0,0,22.5,5.82c-1.19-.53-3.17-.52-4.1-1l.47.24-.12,0s0,.06.09.1A1.17,1.17,0,0,0,18.4,5c.25,0,1.75,1.15,2.36,1.26s1.06.6,1.9.56a9.87,9.87,0,0,1,.88.54c-.13.18.26.34.63.48l.43.4-.13,0c.09.25.57.6.92.93.12.19.23.39.34.6a.06.06,0,0,1,0,0c-.19.33.24.75.39,1,.16,0,.16,2.46.8,2.54l.09.48a1.51,1.51,0,0,0-.1.74.34.34,0,0,1,.2,0,1.23,1.23,0,0,0,0,.19c-.26.17,0,.69-.07,1l.13-.1a1.7,1.7,0,0,0,0,.22l-.15,0a5.93,5.93,0,0,0,.05,1l-.06,0c-.28.65-.24.89.08.75l0,.25L27,17.68a5.4,5.4,0,0,0-.07,1.16,10.4,10.4,0,0,1-.31,1.09c-.2.06-.36.18-.23.53l.06-.05a10.43,10.43,0,0,1-.48,1.08c-.15.21-.3.46-.48.73l.05,0a11.56,11.56,0,0,1-1,1.4l0,0c-.16.18-.31.37-.46.55a10.92,10.92,0,0,1-3.37,2.38l-.29.1h0a10.07,10.07,0,0,1-1.34.46.59.59,0,0,0-.29.07l-.54.11v-.09c-.24,0-.81.09-.88.12l.05.08-.68,0a2.6,2.6,0,0,0-.46-.12c.09,0,.14.07.14.13A10.62,10.62,0,0,1,15,27.37l-.14,0c0-.11-.16-.18-.54-.24a.23.23,0,0,1,0,.16c-.42-.08-.84-.19-1.25-.31a4.31,4.31,0,0,0-1.32-.51l-.48-.23a.48.48,0,0,0-.2-.16.87.87,0,0,0-.28-.11c-.21-.12-.41-.24-.62-.38S9.7,25,9.42,25a11.81,11.81,0,0,1-2.7-3c.13-.09,0-.15-.12-.2l-.19-.34a.16.16,0,0,0,0-.07,11,11,0,0,1-1-2.73,6.9,6.9,0,0,0-.28-2.5,11.91,11.91,0,0,1,.22-2.06c.18-.59.37-1.28.43-1.47.13-.39.24-.72.35-1A12.7,12.7,0,0,1,8.3,8.05,7,7,0,0,1,9.57,7l-.11,0,.13-.1a.51.51,0,0,0,.34-.12c.52-.32,1.23-.51,1.19-.87l.23-.11,0,.07c.29-.16.89-.3,1.1-.54.22-.08.44-.15.67-.21s.62-.17.94-.23a20,20,0,0,0,3-.35c.14,0,.08-.11-.06-.18.26-.07.4-.13.2-.15l-.76-.06a7.7,7.7,0,0,0-.94-.22,2.5,2.5,0,0,0-.87.09l.24,0s0,0,.12,0c-.23.14-.38.16-.46,0a.08.08,0,0,1,0,0,4.68,4.68,0,0,0-.55.27c-.41.08-.81.19-1.21.31,0,0-.14-.07-.07-.2A14.69,14.69,0,0,0,11,5.1a5.58,5.58,0,0,0,.58-.18C11,5.12,9.19,5.8,9,6.37l.17.14-.09.08L9,6.39c-.44.79-1,.86-1.53,1.79q-.33.39-.63.81a5.14,5.14,0,0,0-.72.91c-.24.45-1.49,2.73-1.24,3.2,0,0,0-.07,0-.12a12,12,0,0,0-.41,2.15c0,.33,0,.65-.06,1a4.52,4.52,0,0,0-.08.95l.1-.06a11,11,0,0,0,.18,1.42,1.17,1.17,0,0,0,0,.27v-.14l0,.14,0,0A2.39,2.39,0,0,0,5.07,20c.06.18.13.36.2.54-.1.6.68,1.59,1,2a6.54,6.54,0,0,0,.61.76l.37.48a2.85,2.85,0,0,1,.23.37c.45.87.7.63,1.29,1.19-.18-.17-.3-.28-.38-.37h0a12,12,0,0,0,6.44,3,11.6,11.6,0,0,0,13-9.84A13.85,13.85,0,0,0,26,8.88Zm-14.4-4h.2l-.12,0Zm14.73,6.86.11-.12a.57.57,0,0,0,0,.14Z"/></g></g></g></g></svg>