<svg xmlns="http://www.w3.org/2000/svg" viewBox="0 0 820 201">
<style>
  .Name-text {
    animation: App-logo-spin 2s linear;
    transform-origin: center;
  }

  .Role-text{
    transform-origin: center;
    animation: Role-text-animation 2s linear;
  }

  @keyframes App-logo-spin {
  from {
    transform: scale(0);
  }
  to {
    transform: scale(1);
  }

}

  @keyframes Role-text-animation {
    0%{
      opacity: 0;
    }
    100% {
      opacity: 1;
    }
  }
</style>
  <g fill="none" fill-rule="nonzero">
    <path fill="#2AAEF4" d="M469 39.79l2.13 4.27 3.9 2.33-3.9 2.34L469 53l-2.13-4.27-3.87-2.34 3.9-2.33 2.1-4.27M162.77 19.59a8.07 8.07 0 10-.02 16.14 8.07 8.07 0 00.02-16.14z"/>
    <text fill="#2AAEF4" class="Name-text" font-family="SofiaPro-Bold, Sofia Pro" font-size="40" font-weight="bold" x="410" y="101" text-anchor="middle">
      <tspan>Hi, I’m</tspan>
      <tspan fill="#FF6D2A" id="name">Wojtek</tspan>
    </text>
    <text fill="#FF6D2A" class="Role-text" font-family="SofiaPro-Regular, Sofia Pro" font-size="18">
      <tspan x="410" y="125" text-anchor="middle" id="position">React Native Developer</tspan>
    </text>
    <path fill="#1CB1F1" d="M656.47-19.84L588 24v15.79l68.5-43.87v-15.76"/>
    <path fill="#FF6D2A" d="M697.68 76.54l4 2.24-4 2.23-2.17 4.1-2.16-4.11-4-2.24 4-2.23 2.16-4.1z"/>
    <path fill="#2AAEF4" d="M711.24 58.89l2.94 5.51 5.36 3-5.37 3-2.93 5.51-2.93-5.51-5.37-3 5.37-3 2.93-5.51"/>
    <path fill="#FF6D2A" d="M121.37 151l-100.5 60.13v21.6l100.5-60.13V151"/>
    <g fill="#C1C1C1" opacity=".25">
      <path d="M809.25 195.15a3.09 3.09 0 103.09 3.09 3.14 3.14 0 00-3.09-3.09zM801.8 195.15a3.09 3.09 0 103.09 3.09 3.14 3.14 0 00-3.09-3.09zM809.25 187.88a3.09 3.09 0 103.09 3.09 3.14 3.14 0 00-3.09-3.09zM801.8 187.88a3.09 3.09 0 103.09 3.09 3.14 3.14 0 00-3.09-3.09zM809.25 180.79a3.1 3.1 0 00-3.09 3.09 3.14 3.14 0 003.09 3.09 3.09 3.09 0 100-6.18zM801.8 180.79a3.1 3.1 0 000 6.21 3.09 3.09 0 100-6.18v-.03zM816.52 173.53a3.09 3.09 0 103.09 3.09 3.12 3.12 0 00-3.09-3.09zM809.25 173.53a3.09 3.09 0 103.09 3.09 3.12 3.12 0 00-3.09-3.09zM801.8 173.53a3.09 3.09 0 103.09 3.09 3.12 3.12 0 00-3.09-3.09zM816.52 166.44a3.09 3.09 0 103.09 3.09 3.12 3.12 0 00-3.09-3.09zM809.25 166.44a3.09 3.09 0 103.09 3.09 3.12 3.12 0 00-3.09-3.09zM816.52 159.17a3.1 3.1 0 00-3.09 3.09 3.15 3.15 0 003.09 3.09 3.09 3.09 0 100-6.18zM809.25 159.17a3.09 3.09 0 00-3.09 3.09 3.15 3.15 0 003.09 3.09 3.09 3.09 0 100-6.18zM816.52 152.08a3.09 3.09 0 103.09 3.09 3.12 3.12 0 00-3.09-3.09zM809.25 152.08a3.09 3.09 0 103.09 3.09 3.12 3.12 0 00-3.09-3.09zM816.52 144.81a3.1 3.1 0 00-3.09 3.09 3.15 3.15 0 003.09 3.09 3.09 3.09 0 100-6.18zM809.25 144.81a3.09 3.09 0 00-3.09 3.09 3.15 3.15 0 003.09 3.09 3.09 3.09 0 100-6.18zM816.52 137.54a3.09 3.09 0 103.09 3.09c0-1.7-1.38-3.09-3.09-3.09zM809.25 137.54a3.09 3.09 0 103.09 3.09c0-1.7-1.38-3.09-3.09-3.09zM801.8 137.54a3.09 3.09 0 103.09 3.09c0-1.7-1.38-3.09-3.09-3.09zM816.52 130.45a3.09 3.09 0 103.09 3.09 3.13 3.13 0 00-3.09-3.09zM809.25 130.45a3.09 3.09 0 103.09 3.09 3.13 3.13 0 00-3.09-3.09zM801.8 130.45a3.09 3.09 0 103.09 3.09 3.13 3.13 0 00-3.09-3.09zM794.53 130.45a3.09 3.09 0 103.09 3.09 3.14 3.14 0 00-3.09-3.09zM816.52 123.18a3.09 3.09 0 103.09 3.09 3.13 3.13 0 00-3.09-3.09zM809.25 123.18a3.09 3.09 0 103.09 3.09 3.13 3.13 0 00-3.09-3.09zM801.8 123.18a3.09 3.09 0 103.09 3.09 3.13 3.13 0 00-3.09-3.09zM794.53 123.18a3.09 3.09 0 103.09 3.09 3.14 3.14 0 00-3.09-3.09zM816.52 116.09a3.1 3.1 0 00-3.09 3.09 3.14 3.14 0 003.09 3.09 3.09 3.09 0 100-6.18zM809.25 116.09a3.09 3.09 0 00-3.09 3.09 3.14 3.14 0 003.09 3.09 3.09 3.09 0 100-6.18zM801.8 116.09a3.09 3.09 0 00-3.09 3.09 3.14 3.14 0 003.09 3.09 3.09 3.09 0 100-6.18zM794.53 116.09a3.09 3.09 0 00-3.09 3.09 3.14 3.14 0 003.09 3.09 3.09 3.09 0 100-6.18zM816.52 108.82a3.09 3.09 0 103.09 3.09c0-1.7-1.38-3.09-3.09-3.09zM809.25 108.82a3.09 3.09 0 103.09 3.09c0-1.7-1.38-3.09-3.09-3.09zM801.8 108.82a3.09 3.09 0 103.09 3.09c0-1.7-1.38-3.09-3.09-3.09zM816.52 101.55a3.09 3.09 0 103.09 3.09 3.14 3.14 0 00-3.09-3.09zM809.25 101.55a3.09 3.09 0 103.09 3.09 3.14 3.14 0 00-3.09-3.09zM801.8 101.55a3.09 3.09 0 103.09 3.09 3.14 3.14 0 00-3.09-3.09zM787.26 101.55a3.09 3.09 0 103.09 3.09 3.14 3.14 0 00-3.09-3.09zM787.26 94.46a3.09 3.09 0 00-3.09 3.09 3.14 3.14 0 003.09 3.09 3.09 3.09 0 000-6.18zM780 94.46a3.09 3.09 0 00-3.09 3.09 3.14 3.14 0 003.09 3.09 3.09 3.09 0 000-6.18zM772.72 94.46a3.09 3.09 0 00-3.09 3.09 3.14 3.14 0 003.09 3.09 3.09 3.09 0 100-6.18zM765.45 94.46a3.09 3.09 0 00-3.09 3.09 3.14 3.14 0 003.09 3.09 3.09 3.09 0 000-6.18zM765.45 87.19a3.09 3.09 0 103.09 3.09 3.14 3.14 0 00-3.09-3.09zM758.18 87.19a3.09 3.09 0 103.09 3.09 3.14 3.14 0 00-3.09-3.09zM794.53 80.1a3.1 3.1 0 00-3.09 3.09 3.14 3.14 0 003.09 3.09 3.09 3.09 0 100-6.18zM765.45 80.1a3.1 3.1 0 00-3.09 3.09 3.14 3.14 0 003.09 3.09 3.09 3.09 0 100-6.18zM758.18 80.1a3.1 3.1 0 00-3.09 3.09 3.14 3.14 0 003.09 3.09 3.09 3.09 0 100-6.18zM750.91 80.1a3.1 3.1 0 00-3.09 3.09 3.13 3.13 0 003.09 3.09 3.09 3.09 0 100-6.18zM787.26 72.83a3.09 3.09 0 103.09 3.09 3.14 3.14 0 00-3.09-3.09zM780 72.83a3.09 3.09 0 103.09 3.09 3.14 3.14 0 00-3.09-3.09zM772.72 72.83a3.09 3.09 0 103.09 3.09 3.14 3.14 0 00-3.09-3.09zM765.45 72.83a3.09 3.09 0 103.09 3.09 3.14 3.14 0 00-3.09-3.09zM758.18 72.83a3.09 3.09 0 103.09 3.09 3.14 3.14 0 00-3.09-3.09zM750.91 72.83a3.09 3.09 0 103.09 3.09 3.14 3.14 0 00-3.09-3.09zM743.46 72.83a3.09 3.09 0 103.09 3.09 3.15 3.15 0 00-3.09-3.09zM794.53 65.74a3.09 3.09 0 103.09 3.09 3.14 3.14 0 00-3.09-3.09zM787.26 65.74a3.09 3.09 0 103.09 3.09 3.14 3.14 0 00-3.09-3.09zM780 65.74a3.09 3.09 0 103.09 3.09 3.14 3.14 0 00-3.09-3.09zM772.72 65.74a3.09 3.09 0 103.09 3.09 3.14 3.14 0 00-3.09-3.09zM765.45 65.74a3.09 3.09 0 103.09 3.09 3.14 3.14 0 00-3.09-3.09zM758.18 65.74a3.09 3.09 0 103.09 3.09 3.14 3.14 0 00-3.09-3.09zM750.91 65.74a3.09 3.09 0 103.09 3.09 3.14 3.14 0 00-3.09-3.09zM743.46 65.74a3.09 3.09 0 103.09 3.09 3.15 3.15 0 00-3.09-3.09zM736.19 65.74a3.09 3.09 0 103.09 3.09 3.15 3.15 0 00-3.09-3.09zM794.53 58.48a3.09 3.09 0 103.09 3.09 3.13 3.13 0 00-3.09-3.09zM787.26 58.48a3.09 3.09 0 103.09 3.09 3.13 3.13 0 00-3.09-3.09zM780 58.48a3.09 3.09 0 103.09 3.09 3.13 3.13 0 00-3.09-3.09zM772.72 58.48a3.09 3.09 0 103.09 3.09 3.13 3.13 0 00-3.09-3.09zM765.45 58.48a3.09 3.09 0 103.09 3.09 3.13 3.13 0 00-3.09-3.09zM758.18 58.48a3.09 3.09 0 103.09 3.09 3.13 3.13 0 00-3.09-3.09zM750.91 58.48a3.09 3.09 0 103.09 3.09 3.13 3.13 0 00-3.09-3.09zM743.46 58.48a3.09 3.09 0 103.09 3.09 3.14 3.14 0 00-3.09-3.09zM736.19 58.48a3.09 3.09 0 103.09 3.09 3.14 3.14 0 00-3.09-3.09zM801.8 51.2a3.09 3.09 0 103.09 3.09 3.1 3.1 0 00-3.09-3.09zM794.53 51.2a3.09 3.09 0 103.09 3.09 3.1 3.1 0 00-3.09-3.09zM787.26 51.2a3.09 3.09 0 103.09 3.09 3.1 3.1 0 00-3.09-3.09zM780 51.2a3.09 3.09 0 103.09 3.09A3.1 3.1 0 00780 51.2zM772.72 51.2a3.09 3.09 0 103.09 3.09 3.1 3.1 0 00-3.09-3.09zM765.45 51.2a3.09 3.09 0 103.09 3.09 3.1 3.1 0 00-3.09-3.09zM758.18 51.2a3.09 3.09 0 103.09 3.09 3.1 3.1 0 00-3.09-3.09zM750.91 51.2a3.09 3.09 0 103.09 3.09 3.1 3.1 0 00-3.09-3.09zM743.46 51.2a3.09 3.09 0 103.09 3.09 3.1 3.1 0 00-3.09-3.09zM736.19 51.2a3.09 3.09 0 103.09 3.09 3.1 3.1 0 00-3.09-3.09zM728.92 51.2a3.09 3.09 0 103.08 3.09 3.1 3.1 0 00-3.08-3.09zM809.25 44.12a3.09 3.09 0 103.09 3.09c0-1.7-1.38-3.09-3.09-3.09zM801.8 44.12a3.09 3.09 0 103.09 3.09c0-1.7-1.38-3.09-3.09-3.09zM794.53 44.12a3.09 3.09 0 103.09 3.09c0-1.7-1.38-3.09-3.09-3.09zM787.26 44.12a3.09 3.09 0 103.09 3.09c0-1.7-1.38-3.09-3.09-3.09zM780 44.12a3.09 3.09 0 103.09 3.09 3.09 3.09 0 00-3.09-3.09zM772.72 44.12a3.09 3.09 0 103.09 3.09c0-1.7-1.38-3.09-3.09-3.09zM765.45 44.12a3.09 3.09 0 103.09 3.09c0-1.7-1.38-3.09-3.09-3.09zM758.18 44.12a3.09 3.09 0 103.09 3.09c0-1.7-1.38-3.09-3.09-3.09zM750.91 44.12a3.09 3.09 0 103.09 3.09c0-1.7-1.38-3.09-3.09-3.09zM743.46 44.12a3.09 3.09 0 103.09 3.09 3.09 3.09 0 00-3.09-3.09zM736.19 44.12a3.09 3.09 0 103.09 3.09 3.09 3.09 0 00-3.09-3.09zM816.52 36.85a3.09 3.09 0 103.09 3.09 3.12 3.12 0 00-3.09-3.09zM809.25 36.85a3.09 3.09 0 103.09 3.09 3.12 3.12 0 00-3.09-3.09zM801.8 36.85a3.09 3.09 0 103.09 3.09 3.12 3.12 0 00-3.09-3.09zM794.53 36.85a3.09 3.09 0 103.09 3.09 3.13 3.13 0 00-3.09-3.09zM787.26 36.85a3.09 3.09 0 103.09 3.09 3.13 3.13 0 00-3.09-3.09zM780 36.85a3.09 3.09 0 103.09 3.09 3.13 3.13 0 00-3.09-3.09zM772.72 36.85a3.09 3.09 0 103.09 3.09 3.13 3.13 0 00-3.09-3.09zM765.45 36.85a3.09 3.09 0 103.09 3.09 3.13 3.13 0 00-3.09-3.09zM758.18 36.85a3.09 3.09 0 103.09 3.09 3.13 3.13 0 00-3.09-3.09zM750.91 36.85a3.09 3.09 0 103.09 3.09 3.13 3.13 0 00-3.09-3.09zM743.46 36.85a3.09 3.09 0 103.09 3.09 3.14 3.14 0 00-3.09-3.09zM736.19 36.85a3.09 3.09 0 103.09 3.09 3.14 3.14 0 00-3.09-3.09zM728.92 36.85a3.09 3.09 0 103.08 3.09 3.14 3.14 0 00-3.08-3.09zM816.52 29.58a3.1 3.1 0 00-3.09 3.09 3.15 3.15 0 003.09 3.09 3.09 3.09 0 100-6.18zM809.25 29.58a3.09 3.09 0 00-3.09 3.09 3.15 3.15 0 003.09 3.09 3.09 3.09 0 100-6.18zM801.8 29.58a3.09 3.09 0 00-3.09 3.09 3.15 3.15 0 003.09 3.09 3.09 3.09 0 100-6.18zM794.53 29.58a3.09 3.09 0 00-3.09 3.09 3.15 3.15 0 003.09 3.09 3.09 3.09 0 100-6.18zM787.26 29.58a3.09 3.09 0 00-3.09 3.09 3.15 3.15 0 003.09 3.09 3.09 3.09 0 100-6.18zM780 29.58a3.09 3.09 0 00-3.09 3.09 3.15 3.15 0 003.09 3.09 3.09 3.09 0 100-6.18zM772.72 29.58a3.09 3.09 0 00-3.09 3.09 3.15 3.15 0 003.09 3.09 3.09 3.09 0 100-6.18zM765.45 29.58a3.09 3.09 0 00-3.09 3.09 3.15 3.15 0 003.09 3.09 3.09 3.09 0 100-6.18zM758.18 29.58a3.09 3.09 0 00-3.09 3.09 3.15 3.15 0 003.09 3.09 3.09 3.09 0 100-6.18zM750.91 29.58a3.09 3.09 0 00-3.09 3.09 3.14 3.14 0 003.09 3.09 3.09 3.09 0 100-6.18zM743.46 29.58a3.09 3.09 0 00-3.09 3.09 3.14 3.14 0 003.09 3.09 3.09 3.09 0 100-6.18zM736.19 29.58a3.09 3.09 0 00-3.09 3.09 3.14 3.14 0 003.09 3.09 3.09 3.09 0 100-6.18zM728.92 29.58a3.09 3.09 0 00-3.09 3.09 3.14 3.14 0 003.09 3.09 3.09 3.09 0 100-6.18zM721.65 29.58a3.09 3.09 0 00-3.09 3.09 3.14 3.14 0 003.09 3.09 3.09 3.09 0 100-6.18zM670.58 29.58a3.09 3.09 0 00-3.09 3.09 3.14 3.14 0 003.09 3.09 3.09 3.09 0 100-6.18zM816.52 22.49a3.09 3.09 0 103.09 3.09c0-1.7-1.38-3.09-3.09-3.09zM809.25 22.49a3.09 3.09 0 103.09 3.09c0-1.7-1.38-3.09-3.09-3.09zM801.8 22.49a3.09 3.09 0 103.09 3.09c0-1.7-1.38-3.09-3.09-3.09zM794.53 22.49a3.09 3.09 0 103.09 3.09c0-1.7-1.38-3.09-3.09-3.09zM772.72 22.49a3.09 3.09 0 103.09 3.09c0-1.7-1.38-3.09-3.09-3.09zM765.45 22.49a3.09 3.09 0 103.09 3.09c0-1.7-1.38-3.09-3.09-3.09zM758.18 22.49a3.09 3.09 0 103.09 3.09c0-1.7-1.38-3.09-3.09-3.09zM750.91 22.49a3.09 3.09 0 103.09 3.09c0-1.7-1.38-3.09-3.09-3.09zM743.46 22.49a3.09 3.09 0 103.09 3.09 3.09 3.09 0 00-3.09-3.09zM736.19 22.49a3.09 3.09 0 103.09 3.09 3.09 3.09 0 00-3.09-3.09zM728.92 22.49a3.09 3.09 0 103.08 3.09c0-1.7-1.38-3.08-3.08-3.09zM721.65 22.49a3.09 3.09 0 103.09 3.09c0-1.7-1.38-3.09-3.09-3.09zM714.38 22.49a3.09 3.09 0 103.09 3.09c0-1.7-1.38-3.09-3.09-3.09zM685.12 22.49a3.09 3.09 0 103.09 3.09 3.1 3.1 0 00-3.09-3.09zM801.8 15.4a3.09 3.09 0 103.09 3.09 3.13 3.13 0 00-3.09-3.09zM794.53 15.4a3.09 3.09 0 103.09 3.09 3.14 3.14 0 00-3.09-3.09zM772.72 15.4a3.09 3.09 0 103.09 3.09 3.14 3.14 0 00-3.09-3.09zM765.45 15.4a3.09 3.09 0 103.09 3.09 3.14 3.14 0 00-3.09-3.09zM758.18 15.4a3.09 3.09 0 103.09 3.09 3.14 3.14 0 00-3.09-3.09zM750.91 15.4a3.09 3.09 0 103.09 3.09 3.14 3.14 0 00-3.09-3.09zM743.46 15.4a3.09 3.09 0 103.09 3.09 3.14 3.14 0 00-3.09-3.09zM736.19 15.4a3.09 3.09 0 103.09 3.09 3.14 3.14 0 00-3.09-3.09zM728.92 15.4a3.09 3.09 0 103.08 3.09 3.14 3.14 0 00-3.08-3.09zM721.65 15.4a3.09 3.09 0 103.09 3.09 3.14 3.14 0 00-3.09-3.09zM714.38 15.4a3.09 3.09 0 103.09 3.09 3.14 3.14 0 00-3.09-3.09zM707.11 15.4a3.09 3.09 0 103.09 3.09 3.14 3.14 0 00-3.09-3.09zM699.66 15.4a3.09 3.09 0 103.09 3.09 3.14 3.14 0 00-3.09-3.09zM692.39 15.4a3.09 3.09 0 103.09 3.09 3.14 3.14 0 00-3.09-3.09zM685.12 15.4a3.09 3.09 0 103.09 3.09 3.14 3.14 0 00-3.09-3.09zM677.85 15.4a3.09 3.09 0 103.09 3.09 3.14 3.14 0 00-3.09-3.09zM670.58 15.4a3.09 3.09 0 103.09 3.09 3.14 3.14 0 00-3.09-3.09zM809.25 8.13a3.09 3.09 0 00-3.09 3.09 3.15 3.15 0 003.09 3.09 3.09 3.09 0 100-6.18zM801.8 8.13a3.09 3.09 0 00-3.09 3.09 3.15 3.15 0 003.09 3.09 3.09 3.09 0 100-6.18zM794.53 8.13a3.09 3.09 0 00-3.09 3.09 3.15 3.15 0 003.09 3.09 3.09 3.09 0 100-6.18zM787.26 8.13a3.09 3.09 0 00-3.09 3.09 3.15 3.15 0 003.09 3.09 3.09 3.09 0 100-6.18zM780 8.13a3.09 3.09 0 00-3.09 3.09 3.15 3.15 0 003.09 3.09 3.09 3.09 0 100-6.18zM772.72 8.13a3.09 3.09 0 00-3.09 3.09 3.15 3.15 0 003.09 3.09 3.09 3.09 0 100-6.18zM765.45 8.13a3.09 3.09 0 00-3.09 3.09 3.15 3.15 0 003.09 3.09 3.09 3.09 0 100-6.18zM758.18 8.13a3.09 3.09 0 00-3.09 3.09 3.15 3.15 0 003.09 3.09 3.09 3.09 0 100-6.18zM750.91 8.13a3.09 3.09 0 00-3.09 3.09 3.14 3.14 0 003.09 3.09 3.09 3.09 0 100-6.18zM743.46 8.13a3.09 3.09 0 00-3.09 3.09 3.14 3.14 0 003.09 3.09 3.09 3.09 0 100-6.18zM736.19 8.13a3.09 3.09 0 00-3.09 3.09 3.14 3.14 0 003.09 3.09 3.09 3.09 0 100-6.18zM728.92 8.13a3.09 3.09 0 00-3.09 3.09 3.14 3.14 0 003.09 3.09 3.09 3.09 0 100-6.18zM721.65 8.13a3.09 3.09 0 00-3.09 3.09 3.14 3.14 0 003.09 3.09 3.09 3.09 0 100-6.18zM714.38 8.13a3.09 3.09 0 00-3.09 3.09 3.14 3.14 0 003.09 3.09 3.09 3.09 0 100-6.18zM707.11 8.13a3.09 3.09 0 00-3.11 3.09 3.14 3.14 0 003.09 3.09 3.09 3.09 0 100-6.18h.02zM699.66 8.13a3.09 3.09 0 00-3.09 3.09 3.14 3.14 0 003.09 3.09 3.09 3.09 0 100-6.18zM692.39 8.13a3.09 3.09 0 00-3.09 3.09 3.14 3.14 0 003.09 3.09 3.09 3.09 0 100-6.18zM685.12 8.13a3.09 3.09 0 00-3.12 3.09 3.14 3.14 0 003.09 3.09 3.09 3.09 0 100-6.18h.03zM677.85 8.13a3.09 3.09 0 00-3.09 3.09 3.14 3.14 0 003.09 3.09 3.09 3.09 0 100-6.18zM670.58 8.13a3.09 3.09 0 00-3.09 3.09 3.14 3.14 0 003.09 3.09 3.09 3.09 0 100-6.18zM816.52.86A3.09 3.09 0 10819.61 4a3.09 3.09 0 00-3.09-3.14zM809.25.86A3.09 3.09 0 10812.34 4a3.09 3.09 0 00-3.09-3.14zM801.8.86A3.09 3.09 0 10804.89 4 3.09 3.09 0 00801.8.86zM787.26.86A3.09 3.09 0 10790.35 4a3.09 3.09 0 00-3.09-3.14zM780 .86A3.09 3.09 0 10783.08 4 3.09 3.09 0 00780 .86zM772.72.86A3.09 3.09 0 10775.81 4a3.09 3.09 0 00-3.09-3.14zM765.45.86A3.09 3.09 0 10768.54 4a3.09 3.09 0 00-3.09-3.14zM758.18.86A3.09 3.09 0 10761.27 4a3.09 3.09 0 00-3.09-3.14zM750.91.86A3.09 3.09 0 10754 4a3.09 3.09 0 00-3.09-3.14zM743.46.86A3.09 3.09 0 10746.55 4a3.09 3.09 0 00-3.09-3.14zM736.19.86A3.09 3.09 0 10739.28 4a3.09 3.09 0 00-3.09-3.14zM728.92.86A3.09 3.09 0 10732 4a3.09 3.09 0 00-3.08-3.14zM721.65.86A3.09 3.09 0 10724.74 4a3.09 3.09 0 00-3.09-3.14zM714.38.86A3.09 3.09 0 10717.47 4a3.09 3.09 0 00-3.09-3.14zM707.11.86A3.09 3.09 0 10710.2 4a3.09 3.09 0 00-3.09-3.14zM699.66.86A3.09 3.09 0 10702.75 4a3.1 3.1 0 00-3.09-3.14zM692.39.86A3.09 3.09 0 10695.48 4a3.1 3.1 0 00-3.09-3.14zM685.12.86A3.09 3.09 0 10688.21 4a3.1 3.1 0 00-3.09-3.14zM677.85.86A3.09 3.09 0 10680.94 4a3.1 3.1 0 00-3.09-3.14zM670.58.86A3.09 3.09 0 10673.67 4a3.1 3.1 0 00-3.09-3.14z"/>
    </g>
    <g fill="#C1C1C1" opacity=".25">
      <path d="M36.8 136.88a3.09 3.09 0 00-3.09 3.12 3.14 3.14 0 003.09 3.09c1.7 0 3.09-1.38 3.09-3.09a3.14 3.14 0 00-3.09-3.12zM36.8 129.61a3.09 3.09 0 103.09 3.09 3.14 3.14 0 00-3.09-3.09zM29.35 129.61a3.09 3.09 0 103.09 3.09 3.14 3.14 0 00-3.09-3.09zM36.8 122.34a3.09 3.09 0 103.09 3.09 3.14 3.14 0 00-3.09-3.09zM29.35 122.34a3.09 3.09 0 103.09 3.09 3.14 3.14 0 00-3.09-3.09zM36.8 115.25a3.09 3.09 0 00-3.09 3.09 3.13 3.13 0 003.09 3.09 3.09 3.09 0 100-6.18zM29.35 115.25a3.09 3.09 0 00-3.09 3.09 3.13 3.13 0 003.09 3.09 3.09 3.09 0 100-6.18zM51.34 108a3.09 3.09 0 103.09 3.09 3.14 3.14 0 00-3.09-3.09zM44.07 108a3.09 3.09 0 103.09 3.09 3.14 3.14 0 00-3.09-3.09zM36.8 108a3.09 3.09 0 103.09 3.09A3.14 3.14 0 0036.8 108zM29.35 108a3.09 3.09 0 103.09 3.09 3.14 3.14 0 00-3.09-3.09zM58.61 100.89A3.09 3.09 0 1061.7 104a3.15 3.15 0 00-3.09-3.11zM51.34 100.89a3.09 3.09 0 103.09 3.11 3.15 3.15 0 00-3.09-3.11zM44.07 100.89a3.09 3.09 0 103.09 3.11 3.15 3.15 0 00-3.09-3.11zM36.8 100.89a3.09 3.09 0 103.09 3.11 3.15 3.15 0 00-3.09-3.11zM58.61 93.62a3.09 3.09 0 100 6.18 3.09 3.09 0 000-6.18zM51.34 93.62a3.09 3.09 0 100 6.18 3.09 3.09 0 000-6.18zM44.07 93.62a3.09 3.09 0 10.02 0h-.02zM36.8 93.62a3.09 3.09 0 100 6.18 3.09 3.09 0 000-6.18zM65.88 86.53A3.09 3.09 0 1069 89.62a3.15 3.15 0 00-3.12-3.09zM58.61 86.53a3.09 3.09 0 103.09 3.09 3.15 3.15 0 00-3.09-3.09zM51.34 86.53a3.09 3.09 0 103.09 3.09 3.15 3.15 0 00-3.09-3.09zM44.07 86.53a3.09 3.09 0 103.09 3.09 3.15 3.15 0 00-3.09-3.09zM36.8 86.53a3.09 3.09 0 103.09 3.09 3.15 3.15 0 00-3.09-3.09zM73.15 79.26a3.09 3.09 0 100 6.18 3.09 3.09 0 000-6.18zM65.88 79.26a3.09 3.09 0 100 6.18 3.09 3.09 0 000-6.18zM58.61 79.26a3.09 3.09 0 100 6.18 3.09 3.09 0 000-6.18zM51.34 79.26a3.09 3.09 0 100 6.18 3.09 3.09 0 000-6.18zM44.07 79.26a3.09 3.09 0 10.02 0h-.02zM36.8 79.26a3.09 3.09 0 100 6.18 3.09 3.09 0 000-6.18zM73.15 72a3.09 3.09 0 103.09 3.09A3.1 3.1 0 0073.15 72zM65.88 72A3.09 3.09 0 1069 75.08 3.1 3.1 0 0065.88 72zM58.61 72a3.09 3.09 0 103.09 3.09A3.1 3.1 0 0058.61 72zM51.34 72a3.09 3.09 0 103.09 3.09A3.1 3.1 0 0051.34 72zM44.07 72a3.09 3.09 0 103.09 3.09A3.1 3.1 0 0044.07 72zM36.8 72a3.09 3.09 0 103.09 3.09A3.1 3.1 0 0036.8 72zM29.35 72a3.09 3.09 0 103.09 3.09A3.1 3.1 0 0029.35 72zM80.6 64.9a3.09 3.09 0 103.09 3.1 3.14 3.14 0 00-3.09-3.1zM73.15 64.9a3.09 3.09 0 103.09 3.1 3.15 3.15 0 00-3.09-3.1zM65.88 64.9A3.09 3.09 0 1069 68a3.15 3.15 0 00-3.12-3.1zM58.61 64.9A3.09 3.09 0 1061.7 68a3.15 3.15 0 00-3.09-3.1zM51.34 64.9a3.09 3.09 0 103.09 3.1 3.15 3.15 0 00-3.09-3.1zM44.07 64.9a3.09 3.09 0 103.09 3.1 3.15 3.15 0 00-3.09-3.1zM36.8 64.9a3.09 3.09 0 103.09 3.1 3.15 3.15 0 00-3.09-3.1zM29.35 64.9a3.09 3.09 0 103.09 3.1 3.15 3.15 0 00-3.09-3.1zM22.08 64.9a3.09 3.09 0 103.09 3.1 3.15 3.15 0 00-3.09-3.1zM80.6 57.63a3.09 3.09 0 103.09 3.09 3.14 3.14 0 00-3.09-3.09zM73.15 57.63a3.09 3.09 0 103.09 3.09 3.15 3.15 0 00-3.09-3.09zM65.88 57.63A3.09 3.09 0 1069 60.72a3.15 3.15 0 00-3.12-3.09zM58.61 57.63a3.09 3.09 0 103.09 3.09 3.15 3.15 0 00-3.09-3.09zM51.34 57.63a3.09 3.09 0 103.09 3.09 3.15 3.15 0 00-3.09-3.09zM44.07 57.63a3.09 3.09 0 103.09 3.09 3.15 3.15 0 00-3.09-3.09zM36.8 57.63a3.09 3.09 0 103.09 3.09 3.15 3.15 0 00-3.09-3.09zM29.35 57.63a3.09 3.09 0 103.09 3.09 3.15 3.15 0 00-3.09-3.09zM22.08 57.63a3.09 3.09 0 103.09 3.09 3.15 3.15 0 00-3.09-3.09zM58.61 50.55a3.09 3.09 0 00-3.09 3.09 3.14 3.14 0 003.09 3.09 3.09 3.09 0 100-6.18zM51.34 50.55a3.09 3.09 0 00-3.09 3.09 3.14 3.14 0 003.09 3.09 3.09 3.09 0 100-6.18zM44.07 50.55A3.09 3.09 0 0041 53.64a3.14 3.14 0 003.09 3.09 3.09 3.09 0 100-6.18h-.02zM36.8 50.55a3.09 3.09 0 00-3.09 3.09 3.14 3.14 0 003.09 3.09 3.09 3.09 0 100-6.18zM29.35 50.55a3.09 3.09 0 00-3.09 3.09 3.14 3.14 0 003.09 3.09 3.09 3.09 0 100-6.18zM22.08 50.55A3.09 3.09 0 0019 53.64a3.14 3.14 0 003.09 3.09 3.09 3.09 0 100-6.18h-.01zM58.61 43.28a3.09 3.09 0 103.09 3.09c0-1.7-1.38-3.09-3.09-3.09zM51.34 43.28a3.09 3.09 0 103.09 3.09c0-1.7-1.38-3.09-3.09-3.09zM44.07 43.28a3.09 3.09 0 103.09 3.09c0-1.7-1.38-3.09-3.09-3.09zM36.8 43.28a3.09 3.09 0 103.09 3.09c0-1.7-1.38-3.09-3.09-3.09zM29.35 43.28a3.09 3.09 0 103.09 3.09c0-1.7-1.38-3.09-3.09-3.09zM44.07 36a3.09 3.09 0 103.09 3.09A3.14 3.14 0 0044.07 36zM36.8 36a3.09 3.09 0 103.09 3.09A3.14 3.14 0 0036.8 36zM29.35 36a3.09 3.09 0 103.09 3.09A3.14 3.14 0 0029.35 36zM14.81 36a3.09 3.09 0 103.09 3.1 3.14 3.14 0 00-3.09-3.1zM14.81 28.92A3.09 3.09 0 0011.72 32a3.14 3.14 0 003.09 3.09 3.09 3.09 0 100-6.18v.01zM7.54 28.92A3.09 3.09 0 004.45 32a3.14 3.14 0 003.09 3.1 3.09 3.09 0 100-6.18zM.27 28.92A3.09 3.09 0 00-2.82 32a3.14 3.14 0 003.09 3.1 3.09 3.09 0 100-6.18zM22.08 14.56A3.09 3.09 0 0019 17.65a3.14 3.14 0 003.09 3.09 3.09 3.09 0 100-6.18h-.01zM14.81 7.29a3.09 3.09 0 103.09 3.09 3.14 3.14 0 00-3.09-3.09zM7.54 7.29a3.09 3.09 0 103.09 3.09 3.14 3.14 0 00-3.09-3.09zM.27 7.29a3.09 3.09 0 103.09 3.09A3.14 3.14 0 00.27 7.29zM22.08.2a3.09 3.09 0 103.09 3.09A3.14 3.14 0 0022.08.2zM14.81.2a3.09 3.09 0 103.09 3.09A3.14 3.14 0 0014.81.2zM7.54.2a3.09 3.09 0 103.09 3.09A3.14 3.14 0 007.54.2zM.27.2a3.09 3.09 0 103.09 3.09A3.14 3.14 0 00.27.2z"/>
    </g>
    <path fill="#2AAEF4" d="M239.07 151l2.28 4.17 4.17 2.28-4.17 2.28-2.28 4.17-2.28-4.17-4.17-2.28 4.17-2.28 2.28-4.17"/>
    <path fill="#FF6D2A" d="M222.24 160.88l3 5.47 5.41 3-5.41 3-3 5.47-3-5.47-5.41-3 5.41-3 3-5.47"/>
    <g fill="#C1C1C1" opacity=".25">
      <path d="M510.48 194.83a2.85 2.85 0 102.85 2.85 2.86 2.86 0 00-2.85-2.85zM503.77 194.83a2.85 2.85 0 102.85 2.85 2.86 2.86 0 00-2.85-2.85zM496.89 194.83a2.85 2.85 0 102.85 2.85 2.86 2.86 0 00-2.85-2.85zM490.18 194.83a2.85 2.85 0 102.85 2.85 2.86 2.86 0 00-2.85-2.85zM483.47 194.83a2.85 2.85 0 102.85 2.85 2.86 2.86 0 00-2.85-2.85zM470.05 194.83a2.85 2.85 0 102.85 2.85 2.86 2.86 0 00-2.85-2.85zM463.34 194.83a2.85 2.85 0 102.84 2.85 2.86 2.86 0 00-2.84-2.85zM456.46 194.83a2.85 2.85 0 102.85 2.85 2.86 2.86 0 00-2.85-2.85zM443 194.83a2.85 2.85 0 102.84 2.85 2.85 2.85 0 00-2.84-2.85zM436.32 194.83a2.85 2.85 0 102.85 2.85 2.85 2.85 0 00-2.85-2.85zM429.61 194.83a2.85 2.85 0 102.85 2.85 2.85 2.85 0 00-2.85-2.85zM422.9 194.83a2.85 2.85 0 102.85 2.85 2.85 2.85 0 00-2.85-2.85zM416.19 194.83a2.85 2.85 0 102.85 2.85 2.85 2.85 0 00-2.85-2.85zM409.48 194.83a2.85 2.85 0 102.85 2.85 2.85 2.85 0 00-2.85-2.85zM402.6 194.83a2.85 2.85 0 102.85 2.85 2.85 2.85 0 00-2.85-2.85zM395.89 194.83a2.85 2.85 0 102.85 2.85 2.85 2.85 0 00-2.85-2.85zM389.18 194.83a2.85 2.85 0 102.85 2.85 2.86 2.86 0 00-2.85-2.85zM382.47 194.83a2.85 2.85 0 102.85 2.85 2.86 2.86 0 00-2.85-2.85zM375.76 194.83a2.85 2.85 0 102.85 2.85 2.86 2.86 0 00-2.85-2.85zM369.05 194.83a2.85 2.85 0 102.85 2.85 2.86 2.86 0 00-2.85-2.85zM362.17 194.83a2.85 2.85 0 102.85 2.85 2.86 2.86 0 00-2.85-2.85zM355.46 194.83a2.85 2.85 0 102.85 2.85 2.86 2.86 0 00-2.85-2.85zM348.75 194.83a2.85 2.85 0 102.85 2.85 2.86 2.86 0 00-2.85-2.85zM342 194.83a2.85 2.85 0 102.84 2.85 2.85 2.85 0 00-2.84-2.85zM335.33 194.83a2.85 2.85 0 102.84 2.85 2.85 2.85 0 00-2.84-2.85zM523.9 188.28a2.86 2.86 0 102.85 2.86 2.86 2.86 0 00-2.85-2.86zM517.19 188.28a2.86 2.86 0 102.85 2.86 2.86 2.86 0 00-2.85-2.86zM510.48 188.28a2.86 2.86 0 102.85 2.86 2.86 2.86 0 00-2.85-2.86zM503.77 188.28a2.86 2.86 0 102.85 2.86 2.86 2.86 0 00-2.85-2.86zM496.89 188.28a2.86 2.86 0 102.85 2.86 2.86 2.86 0 00-2.85-2.86zM490.18 188.28a2.86 2.86 0 102.85 2.86 2.86 2.86 0 00-2.85-2.86zM483.47 188.28a2.86 2.86 0 102.85 2.86 2.86 2.86 0 00-2.85-2.86zM463.34 188.28a2.86 2.86 0 102.84 2.86 2.87 2.87 0 00-2.84-2.86zM456.46 188.28a2.86 2.86 0 102.85 2.86 2.87 2.87 0 00-2.85-2.86zM449.75 188.28a2.86 2.86 0 102.84 2.86 2.86 2.86 0 00-2.84-2.86zM443 188.28a2.86 2.86 0 102.84 2.86 2.86 2.86 0 00-2.84-2.86zM436.32 188.28a2.86 2.86 0 102.85 2.86 2.86 2.86 0 00-2.85-2.86zM429.61 188.28a2.86 2.86 0 102.85 2.86 2.86 2.86 0 00-2.85-2.86zM416.19 188.28a2.86 2.86 0 102.85 2.86 2.86 2.86 0 00-2.85-2.86zM409.48 188.28a2.86 2.86 0 102.85 2.86 2.86 2.86 0 00-2.85-2.86zM402.6 188.28a2.86 2.86 0 102.85 2.86 2.86 2.86 0 00-2.85-2.86zM355.46 188.28a2.86 2.86 0 102.85 2.86 2.86 2.86 0 00-2.85-2.86zM348.75 188.28a2.86 2.86 0 102.85 2.86 2.87 2.87 0 00-2.85-2.86zM342 188.28a2.86 2.86 0 102.84 2.86 2.86 2.86 0 00-2.84-2.86zM523.9 181.57a2.86 2.86 0 102.85 2.86 2.9 2.9 0 00-2.85-2.86zM517.19 181.57a2.86 2.86 0 102.85 2.86 2.91 2.91 0 00-2.85-2.86zM510.48 181.57a2.86 2.86 0 102.85 2.86 2.91 2.91 0 00-2.85-2.86zM503.77 181.57a2.86 2.86 0 102.85 2.86 2.91 2.91 0 00-2.85-2.86zM496.89 181.57a2.86 2.86 0 102.85 2.86 2.91 2.91 0 00-2.85-2.86zM490.18 181.57a2.86 2.86 0 102.85 2.86 2.91 2.91 0 00-2.85-2.86zM483.47 181.57a2.86 2.86 0 102.85 2.86 2.91 2.91 0 00-2.85-2.86zM449.75 181.57a2.86 2.86 0 102.84 2.86 2.89 2.89 0 00-2.84-2.86zM443 181.57a2.86 2.86 0 102.84 2.86 2.89 2.89 0 00-2.84-2.86zM436.32 181.57a2.86 2.86 0 102.85 2.86 2.9 2.9 0 00-2.85-2.86zM429.61 181.57a2.86 2.86 0 102.85 2.86 2.9 2.9 0 00-2.85-2.86zM422.9 181.57a2.86 2.86 0 102.85 2.86 2.9 2.9 0 00-2.85-2.86zM416.19 181.57a2.86 2.86 0 102.85 2.86 2.9 2.9 0 00-2.85-2.86zM409.48 181.57a2.86 2.86 0 102.85 2.86 2.91 2.91 0 00-2.85-2.86zM402.6 181.57a2.86 2.86 0 102.85 2.86 2.9 2.9 0 00-2.85-2.86zM395.89 181.57a2.86 2.86 0 102.85 2.86 2.91 2.91 0 00-2.85-2.86zM389.18 181.57a2.86 2.86 0 102.85 2.86 2.91 2.91 0 00-2.85-2.86zM523.9 174.86a2.86 2.86 0 102.85 2.86 2.89 2.89 0 00-2.85-2.86zM517.19 174.86a2.86 2.86 0 102.85 2.86 2.91 2.91 0 00-2.85-2.86zM510.48 174.86a2.86 2.86 0 102.85 2.86 2.91 2.91 0 00-2.85-2.86zM503.77 174.86a2.86 2.86 0 102.85 2.86 2.91 2.91 0 00-2.85-2.86zM496.89 174.86a2.86 2.86 0 102.85 2.86 2.91 2.91 0 00-2.85-2.86zM490.18 174.86a2.86 2.86 0 102.85 2.86 2.91 2.91 0 00-2.85-2.86zM483.47 174.86a2.86 2.86 0 102.85 2.86 2.91 2.91 0 00-2.85-2.86zM476.76 174.86a2.86 2.86 0 102.85 2.86 2.91 2.91 0 00-2.85-2.86zM470.05 174.86a2.86 2.86 0 102.85 2.86 2.91 2.91 0 00-2.85-2.86zM463.34 174.86a2.86 2.86 0 102.84 2.86 2.91 2.91 0 00-2.84-2.86zM436.32 174.86a2.86 2.86 0 102.85 2.86 2.89 2.89 0 00-2.85-2.86zM429.61 174.86a2.86 2.86 0 102.85 2.86 2.89 2.89 0 00-2.85-2.86zM422.9 174.86a2.86 2.86 0 102.85 2.86 2.89 2.89 0 00-2.85-2.86zM416.19 174.86a2.86 2.86 0 102.85 2.86 2.89 2.89 0 00-2.85-2.86zM409.48 174.86a2.86 2.86 0 102.85 2.86 2.91 2.91 0 00-2.85-2.86zM402.6 174.86a2.86 2.86 0 102.85 2.86 2.89 2.89 0 00-2.85-2.86zM395.89 174.86a2.86 2.86 0 102.85 2.86 2.91 2.91 0 00-2.85-2.86zM523.9 168.32a2.86 2.86 0 00-2.85 2.85 2.91 2.91 0 002.85 2.83 2.85 2.85 0 100-5.7v.02zM517.19 168.32a2.86 2.86 0 00-2.85 2.85 2.91 2.91 0 002.85 2.85 2.85 2.85 0 100-5.7zM510.48 168.32a2.86 2.86 0 00-2.85 2.85 2.91 2.91 0 002.85 2.85 2.85 2.85 0 100-5.7zM503.77 168.32a2.86 2.86 0 00-2.85 2.85 2.91 2.91 0 002.85 2.85 2.85 2.85 0 100-5.7zM496.89 168.32a2.86 2.86 0 00-2.85 2.85 2.91 2.91 0 002.85 2.85 2.85 2.85 0 100-5.7zM490.18 168.32a2.86 2.86 0 00-2.85 2.85 2.91 2.91 0 002.85 2.85 2.85 2.85 0 100-5.7zM483.47 168.32a2.86 2.86 0 00-2.85 2.85 2.91 2.91 0 002.85 2.85 2.85 2.85 0 100-5.7zM476.76 168.32a2.85 2.85 0 00-2.85 2.85 2.9 2.9 0 002.85 2.85 2.85 2.85 0 100-5.7zM470.05 168.32a2.85 2.85 0 00-2.85 2.85 2.9 2.9 0 002.85 2.85 2.85 2.85 0 100-5.7zM463.34 168.32a2.85 2.85 0 00-2.85 2.85 2.89 2.89 0 002.85 2.85 2.85 2.85 0 100-5.7zM449.75 168.32a2.86 2.86 0 00-2.86 2.85 2.91 2.91 0 002.86 2.85 2.85 2.85 0 100-5.7zM443 168.32a2.86 2.86 0 00-2.86 2.85A2.91 2.91 0 00443 174a2.85 2.85 0 100-5.7v.02zM436.32 168.32a2.86 2.86 0 00-2.85 2.85 2.91 2.91 0 002.85 2.85 2.85 2.85 0 100-5.7zM422.9 168.32a2.86 2.86 0 00-2.85 2.85 2.91 2.91 0 002.85 2.83 2.85 2.85 0 000-5.7v.02zM416.19 168.32a2.86 2.86 0 00-2.85 2.85 2.91 2.91 0 002.85 2.85 2.85 2.85 0 000-5.7zM409.48 168.32a2.86 2.86 0 00-2.85 2.85 2.91 2.91 0 002.85 2.85 2.85 2.85 0 000-5.7zM530.61 161.61a2.85 2.85 0 102.85 2.85 2.85 2.85 0 00-2.85-2.85zM523.9 161.61a2.85 2.85 0 102.85 2.85 2.85 2.85 0 00-2.85-2.85zM517.19 161.61a2.85 2.85 0 102.85 2.85 2.85 2.85 0 00-2.85-2.85zM510.48 161.61a2.85 2.85 0 102.85 2.85 2.86 2.86 0 00-2.85-2.85zM503.77 161.61a2.85 2.85 0 102.85 2.85 2.86 2.86 0 00-2.85-2.85zM496.89 161.61a2.85 2.85 0 102.85 2.85 2.86 2.86 0 00-2.85-2.85zM490.18 161.61a2.85 2.85 0 102.85 2.85 2.86 2.86 0 00-2.85-2.85zM483.47 161.61a2.85 2.85 0 102.85 2.85 2.86 2.86 0 00-2.85-2.85zM476.76 161.61a2.85 2.85 0 102.85 2.85 2.86 2.86 0 00-2.85-2.85zM470.05 161.61a2.85 2.85 0 102.85 2.85 2.86 2.86 0 00-2.85-2.85zM463.34 161.61a2.85 2.85 0 102.84 2.85 2.86 2.86 0 00-2.84-2.85zM456.46 161.61a2.85 2.85 0 102.85 2.85 2.86 2.86 0 00-2.85-2.85zM449.75 161.61a2.85 2.85 0 102.84 2.85 2.85 2.85 0 00-2.84-2.85zM443 161.61a2.85 2.85 0 102.84 2.85 2.85 2.85 0 00-2.84-2.85zM436.32 161.61a2.85 2.85 0 102.85 2.85 2.85 2.85 0 00-2.85-2.85zM429.61 161.61a2.85 2.85 0 102.85 2.85 2.85 2.85 0 00-2.85-2.85zM523.9 155.07a2.85 2.85 0 102.85 2.85 2.84 2.84 0 00-2.85-2.85zM517.19 155.07a2.85 2.85 0 102.85 2.85 2.84 2.84 0 00-2.85-2.85zM510.48 155.07a2.85 2.85 0 102.85 2.85 2.85 2.85 0 00-2.85-2.85zM503.77 155.07a2.85 2.85 0 102.85 2.85 2.85 2.85 0 00-2.85-2.85zM496.89 155.07a2.85 2.85 0 102.85 2.85 2.85 2.85 0 00-2.85-2.85zM490.18 155.07a2.85 2.85 0 102.85 2.85 2.85 2.85 0 00-2.85-2.85zM483.47 155.07a2.85 2.85 0 102.85 2.85 2.85 2.85 0 00-2.85-2.85zM476.76 155.07a2.85 2.85 0 102.85 2.85 2.85 2.85 0 00-2.85-2.85zM470.05 155.07a2.85 2.85 0 102.85 2.85 2.86 2.86 0 00-2.85-2.85zM463.34 155.07a2.85 2.85 0 102.84 2.85 2.86 2.86 0 00-2.84-2.85zM456.46 155.07a2.85 2.85 0 102.85 2.85 2.86 2.86 0 00-2.85-2.85zM449.75 155.07a2.85 2.85 0 102.84 2.85 2.84 2.84 0 00-2.84-2.85zM443 155.07a2.85 2.85 0 102.84 2.85 2.84 2.84 0 00-2.84-2.85z"/>
    </g>
    <g>
      <path fill="#FF6D2A" d="M628 232c-1.22 0-2.43-.14-3.62-.42a15.89 15.89 0 01-12.41-16.06c.07-2.1.54-4.18 1.4-6.1a16.09 16.09 0 0110.2-8.76A16 16 0 01628 200c2.27 0 4.52.49 6.6 1.41a16 16 0 016.94 6.11 16 16 0 01-9.16 23.82c-1.42.43-2.9.65-4.38.66zm0-31.25a15.16 15.16 0 00-13.87 8.98 15.41 15.41 0 00-1.34 5.82 15.52 15.52 0 002.34 8.53 15.12 15.12 0 009.5 6.77 14.95 14.95 0 007.62-.18 15.24 15.24 0 00-4.25-29.92z"/>
      <path fill="#FF6D2A" d="M639 226a16 16 0 1113.55-24.51 16 16 0 01-5.08 22A16 16 0 01639 226zm0-31.25a15.34 15.34 0 00-10.46 4.18 15.18 15.18 0 00-2.4 19.15 15.12 15.12 0 009.5 6.77 15.19 15.19 0 0018.54-12.92 15.27 15.27 0 00-8.85-15.83c-2-.89-4.15-1.35-6.33-1.35z"/>
      <path fill="#FF6D2A" d="M648 219a16.1 16.1 0 01-15.02-10.39 15.94 15.94 0 013.98-17.18 16.1 16.1 0 016.63-3.78 15.65 15.65 0 0110.98.75c1.9.86 3.6 2.08 5.03 3.6.75.78 1.42 1.62 2 2.53A16 16 0 01648 219zm0-31.25a15.14 15.14 0 00-10.47 4.18 15.2 15.2 0 00-2.39 19.15 15.12 15.12 0 009.5 6.77 14.85 14.85 0 007.62-.18 15.25 15.25 0 008.74-22.74 15.2 15.2 0 00-13-7.18z"/>
      <path fill="#2AAEF4" d="M658 213a16.1 16.1 0 01-13.6-7.52A16 16 0 01658 181a16 16 0 110 32zm0-31.25a15.21 15.21 0 00-15.21 14.73 15.24 15.24 0 1028.17-7.57 15.27 15.27 0 00-12.96-7.16z"/>
      <path fill="#2AAEF4" d="M668 207a16.1 16.1 0 01-15.03-10.41A16 16 0 11668 207zm0-31.25a15.23 15.23 0 10.05 30.47 15 15 0 008.06-2.32 15.25 15.25 0 004.85-21 15.17 15.17 0 00-12.96-7.15z"/>
      <path fill="#2AAEF4" d="M678 201a16 16 0 117.66-30.06A16 16 0 01678 201zm0-31.25a15.21 15.21 0 00-15.03 17.67 15.23 15.23 0 0015.08 12.83 15 15 0 008.06-2.32 15.25 15.25 0 00-8.11-28.18z"/>
    </g>
  </g>
</svg>
