<svg xmlns="http://www.w3.org/2000/svg" viewBox="0 0 33.6 33.78"><defs><style>.cls-1{isolation:isolate;}.cls-2{opacity:0.5;mix-blend-mode:multiply;}.cls-3{fill:#1cb1f1;}.cls-4{fill:#fff;stroke:#fff;stroke-miterlimit:10;stroke-width:0.15px;}</style></defs><g class="cls-1"><g id="Warstwa_2" data-name="Warstwa 2"><g id="Warstwa_1-2" data-name="Warstwa 1"><g id="Blog_posts" data-name="Blog posts"><g class="cls-2"><circle class="cls-3" cx="17.36" cy="17.53" r="16.25" transform="translate(-3.65 30.46) rotate(-76.9)"/></g><circle class="cls-3" cx="16.25" cy="16.25" r="16.25" transform="translate(-6.73 16.25) rotate(-45)"/><path class="cls-4" d="M25.28,6.93c0-.38,0-.77-.06-1.14,0-.53-.17-.62-.69-.59-3.32.16-6.64,0-10,.17-1.57.06-3.13.06-4.69.07A2.6,2.6,0,0,0,7.65,6.66a2.06,2.06,0,0,0-.29.84c-.13,1.45-.22,2.9-.29,4.36a74.79,74.79,0,0,0,.18,11.4,17.5,17.5,0,0,0,.46,2.62c.25.94.6,1.49,1.87,1.42,4.38-.24,8.73-.63,13.09-1.06.5,0,1-.14,1.51-.22.27,0,.43-.12.46-.47a1.34,1.34,0,0,1,.58-1.14.68.68,0,0,0,.31-.81,17.67,17.67,0,0,1-.17-2.72c0-2,0-3.94-.06-5.9C25.17,12.3,25.4,9.61,25.28,6.93ZM11.22,6.46c-.67.68-1.36,1.35-2.08,2.06a.7.7,0,0,1,.13-.82l2-1.94A.47.47,0,0,1,11.22,6.46ZM9.46,21.58l0,0a21.41,21.41,0,0,0,2.06-1.52c.25.28.1.47-.15.66l-2,1.5c0-.26-.26-.45.06-.64h0v0c-.2-.22-.24-.39.06-.61a22.21,22.21,0,0,0,2-1.64c.24.27.05.43-.12.57-.56.45-1.13.89-1.68,1.35C9.61,21.33,9.41,21.38,9.46,21.58Zm2.18-.46-2.2,2c-.08-.34-.13-.57.14-.76.66-.46,1.29-.94,1.94-1.41,0,0,.08,0,.13,0S11.67,21.09,11.64,21.12Zm0,.41a.39.39,0,0,1-.11.53c-.68.57-1.29,1.2-2,1.73a.34.34,0,0,1,.06-.51A26.43,26.43,0,0,1,11.61,21.53Zm-.18-2.42c-.68.61-1.36,1.24-2.16,1.84a.78.78,0,0,1,.31-.85c.57-.46,1.13-1,1.69-1.42.08-.07.16-.15.28-.13A.44.44,0,0,1,11.43,19.11Zm0-.88c-.71.62-1.43,1.23-2.16,1.84a.34.34,0,0,1,0-.48l2.12-1.95C11.56,17.9,11.63,18.09,11.46,18.23Zm0-.88-2.21,2a.68.68,0,0,1,.29-.94c.63-.47,1.24-1,1.89-1.51C11.53,17.16,11.54,17.28,11.47,17.35Zm-.24-.5c-.66.52-1.31,1.06-2,1.62-.13-.27-.17-.5.06-.69L11.46,16A.71.71,0,0,1,11.23,16.85Zm.1-1L9.2,17.6a.6.6,0,0,1,.24-.78l1.94-1.61A.43.43,0,0,1,11.33,15.84ZM11.25,15,9.13,16.78c0-.3-.08-.5.16-.69.71-.55,1.4-1.12,2.11-1.69C11.55,14.66,11.42,14.83,11.25,15Zm0-.83L9.21,15.89a.46.46,0,0,1,.08-.68,25.19,25.19,0,0,1,2.13-1.7C11.46,13.78,11.48,14,11.29,14.14Zm0-.85c-.71.57-1.39,1.16-2.1,1.75a.63.63,0,0,1,.25-.87c.66-.45,1.28-1,2-1.49C11.49,13,11.45,13.13,11.25,13.29ZM11,12.65c-.65.44-1.25,1-1.91,1.51a.72.72,0,0,1,.26-.95c.67-.5,1.31-1,2-1.59A.79.79,0,0,1,11,12.65Zm.22-1.24-2.2,1.85c0-.28-.08-.46.07-.59l2.27-1.95C11.45,11,11.46,11.23,11.25,11.41Zm-.17-.68c-.53.42-1,.89-1.52,1.33-.15.13-.27.32-.51.33a.71.71,0,0,1,.28-.92c.7-.56,1.33-1.21,2.06-1.74A.8.8,0,0,1,11.08,10.73Zm.09-1.1c-.65.56-1.3,1.14-1.94,1.71a.29.29,0,0,1-.23.09.48.48,0,0,1,.14-.56c.73-.7,1.45-1.41,2.21-2.15A.7.7,0,0,1,11.17,9.63Zm0-1.1L9,10.67a.88.88,0,0,1,.3-1c.67-.6,1.32-1.23,2-1.89A.59.59,0,0,1,11.21,8.53Zm.08-1.07c-.71.71-1.44,1.4-2.24,2.17a1.13,1.13,0,0,1,.38-1.08c.63-.59,1.24-1.21,1.9-1.85C11.41,7,11.5,7.25,11.29,7.46ZM10.8,5.84,9.14,7.54a.9.9,0,0,1,.18-.94C10,5.87,10.18,5.78,10.8,5.84Zm-1.55,0c.14,0,.28-.09.41,0s-.09.26-.21.33-.12.24-.27.21-.08-.13-.09-.21S9.08,5.89,9.25,5.82ZM9,24.94a2.75,2.75,0,0,0-.81,1.19A1.14,1.14,0,0,1,8,25.45a53.05,53.05,0,0,1-.61-11.81c.08-1.92.13-3.84.26-5.75A1.83,1.83,0,0,1,8.78,6.12a1.9,1.9,0,0,1,0,.75c-.05,1.56-.19,3.12-.14,4.68.1,3.42.08,6.84.34,10.26.07.92.07,1.85.11,2.78C9.11,24.72,9.14,24.85,9,24.94Zm.57-1,2-1.7a.48.48,0,0,1-.11.55c-.65.59-1.29,1.19-2,1.73A.42.42,0,0,1,9.59,24Zm1.84.5h0c.07,0,.08,0,.08.07h.05c.07,0,.12,0,.12.08s0,0,0,0-.12,0-.13-.07v-.05a.11.11,0,0,1-.08-.07.84.84,0,0,1-.77.21,4.82,4.82,0,0,1,.93-.77c.19.28-.07.39-.17.55Zm0-.71c-.56.35-.92,1.07-1.85,1l2-1.72A.52.52,0,0,1,11.41,23.77Zm12.18,2c-2.33.21-4.67.44-7,.67s-4.77.33-7.15.49c-.7.05-1-.38-.77-1a1,1,0,0,1,1.17-.8c2.09,0,4.18-.17,6.27-.3s4.09-.21,6.14-.25a12.59,12.59,0,0,0,2.46-.27,2.94,2.94,0,0,0-.3.79C24.38,25.63,24.05,25.72,23.59,25.77Zm1.49-1.89c-3,.5-6.11.28-9.18.55-1.11.1-2.23.14-3.35.21l-.49,0c-.12-2.13,0-4.22-.12-6.3s-.14-4.14-.17-6.22.07-4.18-.15-6.31c4.41-.25,8.82-.11,13.28-.25C24.88,11.67,24.84,17.77,25.08,23.88Z"/><path class="cls-4" d="M23.07,24.89l-4,.51A18.75,18.75,0,0,0,23.07,24.89Z"/><path class="cls-4" d="M16,25.34c-1,0-2,.09-3,.11A7.4,7.4,0,0,0,16,25.34Z"/><path class="cls-4" d="M15.48,26a6.16,6.16,0,0,0-2.31.17A10,10,0,0,0,15.48,26Z"/></g></g></g></g></svg>