<svg xmlns="http://www.w3.org/2000/svg" viewBox="0 0 33.6 33.78"><defs><style>.cls-1{isolation:isolate;}.cls-2{opacity:0.5;mix-blend-mode:multiply;}.cls-3{fill:#1cb1f1;}.cls-4{fill:#fff;stroke:#fff;stroke-miterlimit:10;stroke-width:0.15px;}</style></defs><g class="cls-1"><g id="Warstwa_2" data-name="Warstwa 2"><g id="Warstwa_1-2" data-name="Warstwa 1"><g id="Contact_with_me" data-name="Contact with me"><g class="cls-2"><circle class="cls-3" cx="17.36" cy="17.53" r="16.25" transform="translate(-3.65 30.46) rotate(-76.9)"/></g><circle class="cls-3" cx="16.25" cy="16.25" r="16.25" transform="translate(-6.73 16.25) rotate(-45)"/><path class="cls-4" d="M25.6,7.48c-5,4.4-10.9,7.58-16.58,11-.27.17,0,.59.24.43C15,15.46,20.92,12.25,26,7.82c.23-.21-.11-.55-.35-.34Z"/><path class="cls-4" d="M25.19,7.9c-3.36,4.65-7.62,8.55-11.18,13-.19.25.15.6.35.35C18,16.76,22.23,12.83,25.61,8.15c.19-.26-.24-.51-.42-.25Z"/><path class="cls-4" d="M14.25,21.69c2.6,1.47,5.56,2,8.22,3.36.29.14.53-.28.25-.42-2.66-1.32-5.63-1.9-8.22-3.36a.24.24,0,0,0-.25.42Z"/><path class="cls-4" d="M25.55,7.4A48.92,48.92,0,0,1,25,16.2a32.08,32.08,0,0,1-2.24,8.52c-.13.28.29.53.42.25a32.16,32.16,0,0,0,2.27-8.51A48.25,48.25,0,0,0,26,7.4a.25.25,0,0,0-.49,0Z"/><path class="cls-4" d="M25.73,7.16C17.87,8.75,10.52,12.1,2.91,14.51c-.3.1-.17.57.13.48,7.61-2.41,15-5.77,22.82-7.36.31-.06.18-.53-.13-.47Z"/><path class="cls-4" d="M2.85,15c1.85,1.42,4.13,2.14,6,3.55.25.19.49-.23.25-.42C7.23,16.67,5,16,3.1,14.54c-.25-.19-.5.23-.25.42Z"/><path class="cls-4" d="M8.72,18.37c.83,3.3,2.15,6.52,2.61,9.9,0,.27.4.19.48,0,1-2.33,1.65-4.77,2.61-7.1.12-.29-.35-.42-.47-.13-1,2.33-1.65,4.77-2.62,7.1h.48c-.47-3.38-1.79-6.6-2.62-9.9a.24.24,0,0,0-.47.13Z"/><path class="cls-4" d="M17,22.58A69.68,69.68,0,0,0,11.58,28c-.21.24.14.59.35.35a66.37,66.37,0,0,1,5.42-5.45c.23-.21-.11-.56-.35-.35Z"/><path class="cls-4" d="M10.91,17.54c-.16.62-.38,1.23-.59,1.84-.13.35-.25.7-.39,1l-.15.36-.06.12c-.06.1-.09.06,0,0a.21.21,0,0,0,.11.4c.18,0,.26-.29.33-.44.15-.35.28-.7.41-1.06.26-.72.53-1.44.72-2.19a.21.21,0,0,0-.4-.1Z"/><path class="cls-4" d="M12.4,16.71a24.86,24.86,0,0,1-.84,3.07,15.48,15.48,0,0,1-.61,1.6c-.13.28-.3.74-.6.89s0,.47.21.35a1.72,1.72,0,0,0,.64-.83,11.45,11.45,0,0,0,.66-1.62,22.77,22.77,0,0,0,.93-3.35c.05-.26-.34-.37-.39-.11Z"/><path class="cls-4" d="M13.88,15.81c-1.05,3-2.21,6.09-3.05,9.22a.21.21,0,0,0,.4.11c.84-3.13,2-6.17,3-9.22.08-.26-.32-.36-.4-.11Z"/><path class="cls-4" d="M15.36,14.74c-1.21,4.36-3.49,8.42-4.2,12.92l.41.06v-.66a.21.21,0,0,0-.42,0v.66c0,.22.37.28.41.05.71-4.5,3-8.56,4.2-12.92a.21.21,0,0,0-.4-.11Z"/><path class="cls-4" d="M16.75,14.05A16.1,16.1,0,0,1,16,17q-.25.87-.57,1.71c-.08.21-.16.42-.25.62l-.12.21c-.07.12,0,0,.08,0-.25-.08-.36.32-.11.4s.48-.39.56-.58a16.66,16.66,0,0,0,.65-1.79,17.84,17.84,0,0,0,.94-3.51c0-.26-.38-.26-.41,0Z"/><path class="cls-4" d="M18.26,13c-.61,1.44-.74,3-1.25,4.5-.09.25.31.35.39.1.5-1.43.62-3,1.22-4.39.1-.24-.25-.45-.36-.21Z"/><path class="cls-4" d="M19.56,12.18c-.17,1.05-.33,2.1-.58,3.13-.06.26.34.37.4.11.25-1,.4-2.08.58-3.13,0-.26-.36-.37-.4-.11Z"/><path class="cls-4" d="M21,11.28a16.68,16.68,0,0,0-.41,2.22c-.06.26.34.37.4.11a16.39,16.39,0,0,1,.41-2.22c.08-.25-.31-.36-.4-.11Z"/><path class="cls-4" d="M22.6,10a11,11,0,0,1-.32,1.49c-.09.25.31.36.39.1A9.31,9.31,0,0,0,23,10.15c0-.26-.35-.37-.4-.11Z"/></g></g></g></g></svg>