<svg width="103" height="48" viewBox="0 0 103 48" fill="none" xmlns="http://www.w3.org/2000/svg">
<path d="M0 24C0 10.7452 10.7452 0 24 0H79C92.2548 0 103 10.7452 103 24V24C103 37.2548 92.2548 48 79 48H24C10.7452 48 0 37.2548 0 24V24Z" fill="url(#paint0_linear)"/>
<path d="M11.3752 9L13.7795 35.9919L24.5679 39L35.3864 35.9809L37.7926 9H11.3752ZM32.7977 15.184L31.9974 24.1759L31.9998 24.2244L31.9965 24.3361V24.3351L31.4278 30.6224L31.3652 31.181L24.5839 33.0566V33.0568L24.5787 33.0614L17.8091 31.1752L17.3507 25.9771H20.6703L20.9059 28.6203L24.5849 29.6174L24.5839 29.6193V29.6188L28.2766 28.6076L28.6668 24.3033H20.9475L20.8812 23.5757L20.7304 21.871L20.6512 20.9557H28.9602L29.2624 17.6081H16.6071L16.5408 16.881L16.3902 15.1758L16.3108 14.2605H32.8769L32.7977 15.184Z" fill="white"/>
<path d="M54.272 28.144C56.144 28.144 57.776 27.232 58.768 25.856L57.072 24.608C56.448 25.504 55.52 26.048 54.336 26.048C52.336 26.048 50.896 24.448 50.896 22.48C50.896 20.512 52.352 18.944 54.352 18.944C55.52 18.944 56.448 19.488 57.072 20.368L58.768 19.136C57.776 17.744 56.144 16.848 54.272 16.848C51.152 16.848 48.672 19.376 48.672 22.48C48.672 25.616 51.152 28.144 54.272 28.144ZM63.8911 28.144C65.9711 28.144 67.8431 26.992 67.8431 24.8C67.8431 22.928 66.3871 22.048 64.7231 21.584L63.4911 21.232C62.3391 20.912 62.2591 20.336 62.2591 20.064C62.2591 19.328 62.9151 18.8 63.7791 18.8C64.7391 18.8 65.2831 19.408 65.2831 20.192H67.5071C67.5071 18.096 65.9071 16.832 63.8271 16.832C61.7151 16.832 60.0191 18.144 60.0191 20.112C60.0191 21.104 60.4511 22.56 62.8671 23.2L64.2111 23.584C65.1551 23.872 65.6031 24.304 65.6031 24.912C65.6031 25.696 64.9471 26.208 63.9551 26.208C62.9311 26.208 62.1631 25.552 62.1471 24.752H59.9231C59.9231 26.704 61.5391 28.144 63.8911 28.144ZM73.2036 28.144C75.2836 28.144 77.1556 26.992 77.1556 24.8C77.1556 22.928 75.6996 22.048 74.0356 21.584L72.8036 21.232C71.6516 20.912 71.5716 20.336 71.5716 20.064C71.5716 19.328 72.2276 18.8 73.0916 18.8C74.0516 18.8 74.5956 19.408 74.5956 20.192H76.8196C76.8196 18.096 75.2196 16.832 73.1396 16.832C71.0276 16.832 69.3316 18.144 69.3316 20.112C69.3316 21.104 69.7636 22.56 72.1796 23.2L73.5236 23.584C74.4676 23.872 74.9156 24.304 74.9156 24.912C74.9156 25.696 74.2596 26.208 73.2676 26.208C72.2436 26.208 71.4756 25.552 71.4596 24.752H69.2356C69.2356 26.704 70.8516 28.144 73.2036 28.144ZM83.7001 22.352C84.5481 21.92 85.0761 21.152 85.0761 20.272C85.1081 18.496 83.6681 17.376 81.8281 17.376C80.4841 17.376 79.3961 17.984 78.6601 18.848L79.8121 20.16C80.2121 19.648 80.9321 19.312 81.5881 19.312C82.3561 19.312 82.9001 19.712 82.9321 20.352C82.9801 21.088 82.3241 21.696 81.1881 21.696H80.5961V23.312H81.6041C82.6761 23.312 83.4121 23.92 83.4121 24.8C83.4121 25.648 82.6921 26.224 81.5881 26.224C80.8201 26.224 80.2121 25.84 79.7161 25.168L78.2441 26.304C78.9961 27.504 80.1961 28.144 81.6841 28.144C83.9561 28.144 85.5561 26.848 85.5561 24.96C85.5561 23.728 84.8361 22.768 83.7001 22.352Z" fill="white"/>
<defs>
<linearGradient id="paint0_linear" x1="4.44596" y1="24" x2="103.146" y2="24" gradientUnits="userSpaceOnUse">
<stop stop-color="#1558B6"/>
<stop offset="1" stop-color="#1572B6"/>
</linearGradient>
</defs>
</svg>
