<svg width="96" height="48" viewBox="0 0 96 48" fill="none" xmlns="http://www.w3.org/2000/svg">
<path d="M0 24C0 10.7452 10.7452 0 24 0H72C85.2548 0 96 10.7452 96 24V24C96 37.2548 85.2548 48 72 48H24C10.7452 48 0 37.2548 0 24V24Z" fill="url(#paint0_linear)"/>
<path d="M11.3752 9L13.7795 35.9919L24.5679 39L35.3864 35.9809L37.7926 9H11.3752V9ZM32.7977 15.184L31.9974 24.1759L31.9998 24.2244L31.9965 24.3361V24.3351L31.4278 30.6224L31.3652 31.181L24.5839 33.0566V33.0568L24.5787 33.0614L17.8091 31.1752L17.3507 25.9771H20.6703L20.9059 28.6203L24.5849 29.6174L24.5839 29.6193V29.6188L28.2766 28.6076L28.6668 24.3033H20.9475L20.8812 23.5757L20.7304 21.871L20.6512 20.9557H28.9602L29.2624 17.6081H16.6071L16.5408 16.881L16.3902 15.1758L16.3108 14.2605H32.8769L32.7977 15.184V15.184Z" fill="white"/>
<path d="M52.688 28.144C54.048 28.144 55.136 27.52 55.84 26.544L54.272 25.44C53.936 25.904 53.312 26.192 52.704 26.192C51.52 26.192 50.72 25.344 50.72 24.24C50.72 23.152 51.52 22.304 52.704 22.304C53.312 22.304 53.936 22.592 54.272 23.056L55.84 21.952C55.136 20.992 54.048 20.352 52.688 20.352C50.512 20.352 48.592 21.872 48.592 24.24C48.592 26.608 50.512 28.144 52.688 28.144ZM59.9773 28.144C61.5133 28.144 63.1133 27.376 63.1133 25.808C63.1133 25.2 62.8893 24.08 61.0973 23.6L59.8653 23.28C59.4493 23.168 59.1293 22.992 59.1293 22.64C59.1293 22.256 59.5133 22.016 59.9933 22.016C60.4893 22.016 60.9053 22.288 60.9053 22.784H62.9053C62.9213 21.024 61.3213 20.352 59.9613 20.352C58.2333 20.352 57.0333 21.424 57.0333 22.576C57.0333 23.36 57.2893 24.432 59.2093 24.944L60.2013 25.184C60.7613 25.328 61.0173 25.488 61.0173 25.808C61.0173 26.24 60.5533 26.496 59.9453 26.496C59.2093 26.496 58.8413 26.032 58.8413 25.6H56.8733C56.8893 27.248 58.4093 28.144 59.9773 28.144ZM67.4148 28.144C68.9508 28.144 70.5508 27.376 70.5508 25.808C70.5508 25.2 70.3268 24.08 68.5348 23.6L67.3028 23.28C66.8868 23.168 66.5668 22.992 66.5668 22.64C66.5668 22.256 66.9508 22.016 67.4308 22.016C67.9268 22.016 68.3428 22.288 68.3428 22.784H70.3428C70.3588 21.024 68.7588 20.352 67.3988 20.352C65.6708 20.352 64.4708 21.424 64.4708 22.576C64.4708 23.36 64.7268 24.432 66.6468 24.944L67.6388 25.184C68.1988 25.328 68.4548 25.488 68.4548 25.808C68.4548 26.24 67.9908 26.496 67.3828 26.496C66.6468 26.496 66.2788 26.032 66.2788 25.6H64.3108C64.3268 27.248 65.8468 28.144 67.4148 28.144ZM77.0283 22.352C77.8763 21.92 78.4043 21.152 78.4043 20.272C78.4363 18.496 76.9963 17.376 75.1562 17.376C73.8123 17.376 72.7243 17.984 71.9883 18.848L73.1403 20.16C73.5403 19.648 74.2603 19.312 74.9163 19.312C75.6843 19.312 76.2283 19.712 76.2603 20.352C76.3083 21.088 75.6523 21.696 74.5163 21.696H73.9243V23.312H74.9323C76.0043 23.312 76.7403 23.92 76.7403 24.8C76.7403 25.648 76.0203 26.224 74.9163 26.224C74.1483 26.224 73.5403 25.84 73.0443 25.168L71.5723 26.304C72.3243 27.504 73.5243 28.144 75.0123 28.144C77.2843 28.144 78.8843 26.848 78.8843 24.96C78.8843 23.728 78.1643 22.768 77.0283 22.352Z" fill="white"/>
<defs>
<linearGradient id="paint0_linear" x1="4.14381" y1="24" x2="96.1364" y2="24" gradientUnits="userSpaceOnUse">
<stop stop-color="#1558B6"/>
<stop offset="1" stop-color="#1572B6"/>
</linearGradient>
</defs>
</svg>
