<svg width="122" height="48" viewBox="0 0 122 48" fill="none" xmlns="http://www.w3.org/2000/svg">
<path d="M0 24C0 10.7452 10.7452 0 24 0H98C111.255 0 122 10.7452 122 24C122 37.2548 111.255 48 98 48H24C10.7452 48 0 37.2548 0 24Z" fill="url(#paint0_linear)"/>
<path d="M39.3942 33.0813C38.2681 33.3799 37.5701 33.0813 36.9414 32.1267C35.5356 29.9545 33.9862 27.882 32.4862 25.7711C32.2932 25.498 32.0927 25.23 31.8452 24.8879C30.0706 27.3536 28.3009 29.7018 26.6401 32.1445C26.046 33.0175 25.4223 33.3952 24.3135 33.0889L30.9764 23.867L24.7738 15.5383C25.8406 15.3214 26.5782 15.4337 27.2341 16.4189C28.6771 18.5936 30.2686 20.6636 31.8551 22.8536C33.4491 20.6713 35.0207 18.5987 36.5058 16.4445C37.0998 15.5715 37.7434 15.2397 38.8126 15.5613C38.0008 16.6716 37.2087 17.7615 36.4093 18.8463C35.3301 20.3114 34.2708 21.7893 33.152 23.2212C32.7536 23.7317 32.8179 24.0635 33.1743 24.5459C35.2435 27.3536 37.2879 30.1868 39.3942 33.0813Z" fill="white"/>
<path d="M8.37138 23.7138C8.54958 22.7924 8.66839 21.8531 8.91342 20.9495C10.3985 15.4796 16.4897 13.2054 20.6701 16.595C23.123 18.5834 23.7318 21.386 23.6106 24.5536H9.79951C9.5916 30.2225 13.5493 33.6454 18.5935 31.8995C20.3657 31.2869 21.4052 29.8575 21.9275 28.0708C22.1923 27.1749 22.6304 27.0345 23.4497 27.2898C23.0314 29.5257 22.0809 31.3941 20.1033 32.5631C17.1332 34.3141 12.8934 33.7475 10.6633 31.3175C9.34409 29.878 8.78472 28.0989 8.53721 26.1769C8.49761 25.8706 8.42088 25.5694 8.36395 25.2657L8.37138 23.7138ZM9.82426 23.3335H22.3062C22.2245 19.2343 19.7519 16.3219 16.3659 16.2964C12.6533 16.2658 9.98514 19.1092 9.82426 23.3335Z" fill="white"/>
<path d="M51.568 26.032V23.568H55.68V21.568H51.568V18.944H56.256V16.976H49.344V28H56.4V26.032H51.568ZM65.4595 28L62.5315 23.952L64.9955 20.544H62.5315L61.3795 22.256L60.1955 20.544H57.7155L60.1795 23.952L57.2195 28H59.6835L61.3635 25.616L63.0115 28H65.4595ZM71.052 20.352C70.204 20.352 69.18 20.688 68.652 21.44V20.544H66.556V31.664H68.652V27.072C69.18 27.824 70.204 28.144 71.052 28.144C72.972 28.144 74.716 26.656 74.716 24.256C74.716 21.856 72.972 20.352 71.052 20.352ZM70.652 26.176C69.676 26.176 68.716 25.408 68.716 24.256C68.716 23.12 69.628 22.32 70.652 22.32C71.708 22.32 72.572 23.168 72.572 24.256C72.572 25.36 71.708 26.176 70.652 26.176ZM80.6561 20.352C79.7281 20.352 78.8801 20.88 78.4641 22.128V20.544H76.3841V28H78.4801V25.44C78.4801 23.312 79.2161 22.32 80.2881 22.32C80.5441 22.32 80.9121 22.352 81.3601 22.592L81.8401 20.592C81.5041 20.416 81.0561 20.352 80.6561 20.352ZM90.1824 24.144C90.1824 21.856 88.4384 20.352 86.3104 20.352C84.1664 20.352 82.3424 21.856 82.3424 24.272C82.3424 26.576 84.0224 28.144 86.3104 28.144C87.6224 28.144 88.9344 27.632 89.6384 26.688L88.4064 25.456C87.9584 25.984 87.2064 26.288 86.4544 26.288C85.4464 26.288 84.7424 25.808 84.5184 24.944H90.1504C90.1664 24.608 90.1824 24.352 90.1824 24.144ZM84.5184 23.584C84.7424 22.576 85.4944 22.176 86.3424 22.176C87.2864 22.176 88.0224 22.704 88.0864 23.584H84.5184ZM94.446 28.144C95.982 28.144 97.582 27.376 97.582 25.808C97.582 25.2 97.358 24.08 95.566 23.6L94.334 23.28C93.918 23.168 93.598 22.992 93.598 22.64C93.598 22.256 93.982 22.016 94.462 22.016C94.958 22.016 95.374 22.288 95.374 22.784H97.374C97.39 21.024 95.79 20.352 94.43 20.352C92.702 20.352 91.502 21.424 91.502 22.576C91.502 23.36 91.758 24.432 93.678 24.944L94.67 25.184C95.23 25.328 95.486 25.488 95.486 25.808C95.486 26.24 95.022 26.496 94.414 26.496C93.678 26.496 93.31 26.032 93.31 25.6H91.342C91.358 27.248 92.878 28.144 94.446 28.144ZM101.884 28.144C103.42 28.144 105.02 27.376 105.02 25.808C105.02 25.2 104.796 24.08 103.004 23.6L101.772 23.28C101.356 23.168 101.036 22.992 101.036 22.64C101.036 22.256 101.42 22.016 101.9 22.016C102.396 22.016 102.812 22.288 102.812 22.784H104.812C104.828 21.024 103.228 20.352 101.868 20.352C100.14 20.352 98.9395 21.424 98.9395 22.576C98.9395 23.36 99.1955 24.432 101.116 24.944L102.108 25.184C102.668 25.328 102.924 25.488 102.924 25.808C102.924 26.24 102.46 26.496 101.852 26.496C101.116 26.496 100.748 26.032 100.748 25.6H98.7795C98.7955 27.248 100.316 28.144 101.884 28.144Z" fill="white"/>
<defs>
<linearGradient id="paint0_linear" x1="5.26609" y1="24" x2="122.173" y2="24" gradientUnits="userSpaceOnUse">
<stop stop-color="#383F52"/>
<stop offset="1" stop-color="#384752"/>
</linearGradient>
</defs>
</svg>
