<svg width="111" height="48" viewBox="0 0 111 48" fill="none" xmlns="http://www.w3.org/2000/svg">
<path d="M0 24C0 10.7452 10.7452 0 24 0H87C100.255 0 111 10.7452 111 24V24C111 37.2548 100.255 48 87 48H24C10.7452 48 0 37.2548 0 24V24Z" fill="url(#paint0_linear)"/>
<path d="M28.7501 18.6666C31.6481 18.6666 34 16.2774 34 13.3334C34 10.3894 31.6481 8 28.7501 8H18.2499C15.3519 8 13 10.3894 13 13.3334C13 16.2774 15.3519 18.6666 18.2499 18.6666C15.3519 18.6666 13 21.056 13 24C13 26.944 15.3519 29.3334 18.2499 29.3334C15.3519 29.3334 13 31.7226 13 34.6666C13 37.6106 15.3519 40 18.2499 40C21.1479 40 23.5 37.6106 23.5 34.6666V18.6666H28.7501Z" fill="white"/>
<path d="M29 29C31.7614 29 34 26.7614 34 24C34 21.2386 31.7614 19 29 19C26.2386 19 24 21.2386 24 24C24 26.7614 26.2386 29 29 29Z" fill="white"/>
<path d="M56.16 18.944V16.976H49.344V28H51.568V23.552H55.216V21.6H51.568V18.944H56.16ZM58.7679 19.216C59.5039 19.216 60.0959 18.656 60.0959 17.952C60.0959 17.248 59.5039 16.704 58.7679 16.704C58.0479 16.704 57.4399 17.248 57.4399 17.952C57.4399 18.656 58.0479 19.216 58.7679 19.216ZM57.7279 28H59.8239V20.544H57.7279V28ZM67.547 20.544V21.424C67.003 20.704 65.995 20.368 65.147 20.368C63.227 20.368 61.483 21.856 61.483 24.256C61.483 26.656 63.227 28.144 65.147 28.144C65.979 28.144 67.003 27.808 67.547 27.088V27.2C67.547 29.152 66.699 29.888 65.355 29.888C64.555 29.888 63.787 29.408 63.467 28.736L61.723 29.488C62.363 30.864 63.755 31.76 65.355 31.76C67.995 31.76 69.643 30.24 69.643 26.976V20.544H67.547ZM65.547 26.192C64.491 26.192 63.611 25.344 63.611 24.256C63.611 23.152 64.491 22.336 65.547 22.336C66.523 22.336 67.483 23.104 67.483 24.256C67.483 25.392 66.571 26.192 65.547 26.192ZM80.8631 20.352C80.0951 20.352 78.9431 20.704 78.3671 21.792C77.9351 20.88 77.0711 20.352 75.9671 20.352C75.1351 20.352 74.0791 20.848 73.8551 21.872V20.544H71.7591V28H73.8551V24.112C73.8551 22.768 74.6231 22.416 75.3751 22.416C76.0791 22.416 76.6871 22.88 76.6871 24.048V28H78.7831V24.048C78.8311 22.928 79.4231 22.4 80.2551 22.416C80.9911 22.416 81.5991 22.896 81.5991 24.064V28H83.7111V23.904C83.7111 21.664 82.7351 20.352 80.8631 20.352ZM91.3283 20.544V21.44C90.8003 20.688 89.7923 20.368 88.9283 20.368C87.0082 20.368 85.2643 21.856 85.2643 24.256C85.2643 26.656 87.0082 28.144 88.9283 28.144C89.7603 28.144 90.8003 27.808 91.3283 27.072V28H93.4243V20.544H91.3283ZM89.3283 26.192C88.2723 26.192 87.3923 25.344 87.3923 24.256C87.3923 23.152 88.2723 22.336 89.3283 22.336C90.3043 22.336 91.2643 23.104 91.2643 24.256C91.2643 25.392 90.3523 26.192 89.3283 26.192Z" fill="white"/>
<defs>
<linearGradient id="paint0_linear" x1="4.79128" y1="24" x2="111.158" y2="24" gradientUnits="userSpaceOnUse">
<stop stop-color="#A259FF"/>
<stop offset="1" stop-color="#BD59FF"/>
</linearGradient>
</defs>
</svg>
