<svg width="117" height="48" viewBox="0 0 117 48" fill="none" xmlns="http://www.w3.org/2000/svg">
<path d="M0 24C0 10.7452 10.7452 0 24 0H93C106.255 0 117 10.7452 117 24C117 37.2548 106.255 48 93 48H24C10.7452 48 0 37.2548 0 24Z" fill="url(#paint0_linear)"/>
<path d="M24 8C15.175 8 8 15.175 8 24C8 32.825 15.175 40 24 40C32.825 40 40 32.825 40 24C40 15.175 32.825 8 24 8ZM11.3 24L24 36.7C16.975 36.7 11.3 31.025 11.3 24ZM26.85 36.375L11.625 21.125C12.925 15.5 17.975 11.3 24 11.3C28.15 11.3 31.825 13.275 34.125 16.35L32.25 18.15C30.425 15.55 27.425 13.875 24 13.875C19.6 13.875 15.875 16.675 14.475 20.575C16.275 22.25 26.85 32.7 27.525 33.5C30.7 32.325 33.1 29.625 33.875 26.275H28.475V23.925L36.725 23.975C36.7 30.05 32.5 35.1 26.85 36.375Z" fill="white"/>
<path d="M54.416 29.692C57.408 29.692 59.664 27.82 59.664 23.74H54.112V25.548H57.232C57.232 26.828 55.808 27.692 54.368 27.692C52.352 27.692 50.896 25.964 50.896 23.996C50.896 22.028 52.384 20.348 54.304 20.348C55.264 20.348 56.144 20.764 56.768 21.436L58.384 20.044C57.424 18.972 55.968 18.284 54.304 18.284C51.136 18.284 48.672 20.86 48.672 23.996C48.672 27.116 51.088 29.692 54.416 29.692ZM66.797 23.02C66.301 22.252 65.341 21.836 64.381 21.836C62.237 21.836 60.733 23.452 60.733 25.772C60.733 28.092 62.269 29.692 64.333 29.692C65.341 29.692 66.301 29.196 66.797 28.428V29.5H68.893V22.028H66.797V23.02ZM64.797 27.74C63.693 27.74 62.877 26.812 62.877 25.772C62.877 24.684 63.693 23.788 64.781 23.788C65.821 23.788 66.733 24.636 66.733 25.772C66.733 26.844 65.853 27.74 64.797 27.74ZM73.8251 22.028V19.308H71.7291V22.028H70.3691V23.66H71.7291V29.5H73.8251V23.66H75.4091V22.028H73.8251ZM79.3523 29.692C80.8883 29.692 82.4883 28.876 82.4883 27.308C82.4883 26.7 82.2643 25.58 80.4723 25.1L79.2403 24.78C78.8243 24.668 78.5043 24.492 78.5043 24.14C78.5043 23.756 78.8883 23.484 79.3683 23.484C79.8643 23.484 80.2803 23.756 80.2803 24.268H82.2803C82.2963 22.492 80.6963 21.836 79.3363 21.836C77.6083 21.836 76.4083 22.924 76.4083 24.076C76.4083 24.86 76.6643 25.932 78.5843 26.444L79.5763 26.684C80.1363 26.828 80.3923 26.988 80.3923 27.308C80.3923 27.74 79.9283 28.044 79.3203 28.044C78.5843 28.044 78.2163 27.58 78.2163 27.148H76.2483C76.2643 28.796 77.7843 29.692 79.3523 29.692ZM88.6301 21.836C87.7821 21.836 86.7581 22.172 86.2301 22.924V17.964H84.1341V29.5H86.2301V28.572C86.7581 29.34 87.7821 29.692 88.6301 29.692C90.5501 29.692 92.2941 28.156 92.2941 25.756C92.2941 23.356 90.5501 21.836 88.6301 21.836ZM88.2301 27.74C87.2061 27.74 86.2941 26.892 86.2941 25.756C86.2941 24.604 87.2541 23.788 88.2301 23.788C89.2861 23.788 90.1501 24.652 90.1501 25.756C90.1501 26.844 89.2861 27.74 88.2301 27.74ZM96.8631 26.348L95.1031 22.028H92.7991L95.7591 28.796L93.9831 33.164H96.2231L100.831 22.028H98.5751L96.8631 26.348Z" fill="white"/>
<defs>
<linearGradient id="paint0_linear" x1="5.05027" y1="24" x2="117.166" y2="24" gradientUnits="userSpaceOnUse">
<stop stop-color="#64328B"/>
<stop offset="1" stop-color="#82328B"/>
</linearGradient>
</defs>
</svg>
