<svg width="133" height="48" viewBox="0 0 133 48" fill="none" xmlns="http://www.w3.org/2000/svg">
<path d="M0 24C0 10.7452 10.7452 0 24 0H109C122.255 0 133 10.7452 133 24C133 37.2548 122.255 48 109 48H24C10.7452 48 0 37.2548 0 24Z" fill="url(#paint0_linear)"/>
<path fill-rule="evenodd" clip-rule="evenodd" d="M26.284 11.6622L32.9842 15.4563C33.1776 15.2555 33.3996 15.0832 33.6432 14.9447C35.0327 14.1613 36.8051 14.6264 37.6123 15.9893C38.4111 17.3522 37.9368 19.0903 36.5472 19.8819C36.3054 20.0185 36.0447 20.1203 35.7734 20.1841V27.775C36.0418 27.839 36.2996 27.94 36.5389 28.0752C37.9368 28.8668 38.4111 30.6051 37.604 31.9679C36.8051 33.3307 35.0245 33.7959 33.6348 33.0125C33.3656 32.861 33.1231 32.6679 32.9166 32.4407L26.2573 36.2114C26.3548 36.501 26.4043 36.8041 26.404 37.1091C26.404 38.6759 25.106 39.9573 23.5 39.9573C21.894 39.9573 20.5961 38.684 20.5961 37.1091C20.5961 36.8291 20.6371 36.5587 20.7135 36.3033L14.0152 32.5103C13.8239 32.7071 13.605 32.8762 13.3652 33.0125C11.9673 33.7959 10.1949 33.3307 9.39606 31.9679C8.59731 30.6051 9.07162 28.8668 10.4611 28.0752C10.7005 27.94 10.9583 27.8389 11.2267 27.7749V20.1841C10.9553 20.1203 10.6947 20.0185 10.4529 19.8819C9.06324 19.0986 8.58893 17.3522 9.38779 15.9893C10.1867 14.6264 11.9672 14.1613 13.3568 14.9447C13.5991 15.0825 13.82 15.2537 14.0127 15.453L20.7148 11.658C20.6358 11.395 20.5958 11.1222 20.5961 10.848C20.5961 9.27321 21.894 8 23.5 8C25.106 8 26.404 9.2731 26.404 10.848C26.404 11.1311 26.3621 11.4043 26.284 11.6622ZM25.586 12.8312L32.3021 16.6341C32.1952 17.0008 32.1645 17.3848 32.2119 17.7633C32.2593 18.1418 32.3839 18.507 32.5782 18.8374C32.987 19.5348 33.653 19.9972 34.3921 20.1774V27.7778C34.3544 27.7868 34.3169 27.7967 34.2796 27.8071L25.5079 12.9073C25.5344 12.8824 25.5605 12.8571 25.586 12.8313V12.8312ZM21.4939 12.909L12.7223 27.8086C12.6844 27.7978 12.6463 27.7878 12.6079 27.7786V20.1774C13.3471 19.9972 14.0131 19.5348 14.4219 18.8374C14.6166 18.5064 14.7412 18.1403 14.7885 17.7611C14.8357 17.3818 14.8045 16.9971 14.6968 16.6299L21.411 12.8281C21.4381 12.8555 21.4657 12.8825 21.4939 12.9088V12.909ZM24.3115 13.5839L33.081 28.4802C32.8801 28.6682 32.708 28.8836 32.5698 29.1198C32.4319 29.3545 32.3289 29.6073 32.2637 29.8706H14.7366C14.6713 29.6073 14.5682 29.3545 14.4303 29.1198C14.2916 28.8852 14.1198 28.6711 13.9198 28.4838L22.6911 13.5846C22.9541 13.6588 23.2264 13.6964 23.5 13.6961C23.7818 13.6961 24.054 13.657 24.3115 13.5839ZM25.6476 35.1904L32.3201 31.4121C32.3001 31.3504 32.2822 31.2881 32.2665 31.2252H14.7329C14.7236 31.2622 14.7135 31.2989 14.7027 31.3354L21.4078 35.1323C21.6786 34.8562 22.0036 34.6366 22.3631 34.4869C22.7227 34.3372 23.1094 34.2603 23.5 34.261C23.9043 34.2603 24.3043 34.3427 24.6741 34.5027C25.044 34.6628 25.3756 34.897 25.6476 35.1904Z" fill="white"/>
<path d="M54.416 29.692C57.408 29.692 59.664 27.82 59.664 23.74H54.112V25.548H57.232C57.232 26.828 55.808 27.692 54.368 27.692C52.352 27.692 50.896 25.964 50.896 23.996C50.896 22.028 52.384 20.348 54.304 20.348C55.264 20.348 56.144 20.764 56.768 21.436L58.384 20.044C57.424 18.972 55.968 18.284 54.304 18.284C51.136 18.284 48.672 20.86 48.672 23.996C48.672 27.116 51.088 29.692 54.416 29.692ZM65.453 21.836C64.525 21.836 63.677 22.38 63.261 23.628V22.028H61.181V29.5H63.277V26.94C63.277 24.812 64.013 23.804 65.085 23.804C65.341 23.804 65.709 23.836 66.157 24.076L66.637 22.076C66.301 21.9 65.853 21.836 65.453 21.836ZM73.1564 23.02C72.6604 22.252 71.7004 21.836 70.7404 21.836C68.5964 21.836 67.0924 23.452 67.0924 25.772C67.0924 28.092 68.6284 29.692 70.6924 29.692C71.7004 29.692 72.6604 29.196 73.1564 28.428V29.5H75.2524V22.028H73.1564V23.02ZM71.1564 27.74C70.0524 27.74 69.2364 26.812 69.2364 25.772C69.2364 24.684 70.0524 23.788 71.1404 23.788C72.1804 23.788 73.0924 24.636 73.0924 25.772C73.0924 26.844 72.2124 27.74 71.1564 27.74ZM81.8645 21.836C81.0165 21.836 79.9925 22.188 79.4645 22.94V22.028H77.3685V33.164H79.4645V28.572C79.9925 29.34 81.0165 29.692 81.8645 29.692C83.7845 29.692 85.5285 28.172 85.5285 25.756C85.5285 23.372 83.7845 21.836 81.8645 21.836ZM81.4645 27.74C80.4885 27.74 79.5285 26.908 79.5285 25.772C79.5285 24.636 80.4405 23.788 81.4645 23.788C82.5205 23.788 83.3845 24.668 83.3845 25.772C83.3845 26.876 82.5205 27.74 81.4645 27.74ZM91.5326 21.836C90.8126 21.836 89.6126 22.252 89.2926 23.212V17.964H87.1966V29.5H89.2926V25.58C89.2926 24.236 90.2206 23.82 90.9726 23.82C91.6926 23.82 92.3966 24.364 92.3966 25.532V29.5H94.4926V25.404C94.5086 23.164 93.4846 21.836 91.5326 21.836ZM107.341 23.996C107.341 20.86 104.845 18.284 101.725 18.284C98.5891 18.284 96.1251 20.86 96.1251 23.996C96.1251 27.116 98.5891 29.692 101.725 29.692C102.269 29.692 102.781 29.612 103.277 29.468L104.429 31.372L106.013 30.412L104.941 28.668C106.397 27.628 107.341 25.916 107.341 23.996ZM101.725 27.596C99.7411 27.596 98.3491 25.98 98.3491 23.996C98.3491 22.012 99.7411 20.38 101.725 20.38C103.693 20.38 105.101 22.012 105.101 23.996C105.101 25.148 104.621 26.188 103.837 26.844L102.717 25.02L101.149 25.98L102.125 27.58C101.997 27.596 101.853 27.596 101.725 27.596ZM111.584 18.476H109.36V29.5H115.76V27.532H111.584V18.476Z" fill="white"/>
<defs>
<linearGradient id="paint0_linear" x1="5.7409" y1="24" x2="133.189" y2="24" gradientUnits="userSpaceOnUse">
<stop stop-color="#E53570"/>
<stop offset="1" stop-color="#E535AB"/>
</linearGradient>
</defs>
</svg>
