<svg width="48" height="48" viewBox="0 0 48 48" fill="none" xmlns="http://www.w3.org/2000/svg">
<circle cx="24" cy="24" r="24" fill="url(#paint0_linear)"/>
<path d="M12.4003 20.04H17.4003V36.13H12.4003V20.04ZM14.9003 12.04C15.4755 12.0401 16.0378 12.2112 16.5155 12.5317C16.9932 12.8521 17.3649 13.3074 17.5831 13.8397C17.8014 14.3719 17.8565 14.957 17.7413 15.5206C17.6261 16.0842 17.3459 16.6009 16.9363 17.0048C16.5267 17.4087 16.0063 17.6817 15.4411 17.7891C14.876 17.8964 14.2917 17.8332 13.7625 17.6076C13.2333 17.382 12.7832 17.004 12.4694 16.5219C12.1557 16.0398 11.9923 15.4752 12.0003 14.9C12.0003 14.1309 12.3058 13.3932 12.8497 12.8494C13.3935 12.3055 14.1311 12 14.9003 12" fill="white"/>
<path d="M20.5503 20.04H25.3403V22.24H25.4103C25.8902 21.4175 26.5849 20.741 27.4199 20.283C28.2548 19.825 29.1987 19.6027 30.1503 19.64C35.2103 19.64 36.1503 22.97 36.1503 27.3V36.13H31.1503V28.31C31.1503 26.44 31.1503 24.04 28.5503 24.04C25.9503 24.04 25.5503 26.04 25.5503 28.17V36.17H20.5503V20.04Z" fill="white"/>
<defs>
<linearGradient id="paint0_linear" x1="0" y1="24" x2="48" y2="24" gradientUnits="userSpaceOnUse">
<stop stop-color="#0046E5"/>
<stop offset="1" stop-color="#1877F2"/>
</linearGradient>
</defs>
</svg>
