<svg width="138" height="48" viewBox="0 0 138 48" fill="none" xmlns="http://www.w3.org/2000/svg">
<path d="M0 24C0 10.7452 10.7452 0 24 0H114C127.255 0 138 10.7452 138 24C138 37.2548 127.255 48 114 48H24C10.7452 48 0 37.2548 0 24Z" fill="url(#paint0_linear)"/>
<g clip-path="url(#clip0)">
<path fill-rule="evenodd" clip-rule="evenodd" d="M31.7028 22.1899C31.591 20.9099 31.3142 19.6496 30.8791 18.4406C30.0328 15.7481 28.5798 13.2858 26.6318 11.2433C26.1312 10.7185 25.5768 10.2394 25.2295 9.58802C25.0088 9.17352 24.7989 8.75633 24.5836 8.34183C24.5459 8.24224 24.5055 8.13996 24.449 8C24.4311 8.04319 24.4184 8.08837 24.4113 8.13458C24.3925 8.81016 24.0103 9.27042 23.5312 9.69838C22.9929 10.1829 22.4922 10.705 21.9781 11.211L20.3874 13.2997L19.1035 15.6548C18.8182 16.4273 18.5302 17.1998 18.2449 17.9749C18.2449 17.9749 18.2234 17.9965 18.2207 18.0099C17.7679 19.5609 17.4925 21.1582 17.3998 22.7713C17.3743 23.3816 17.3878 23.993 17.4402 24.6016C17.4929 25.4699 17.6354 26.3304 17.8654 27.1693C18.689 30.2296 20.3632 32.7705 22.6483 34.9264C23.0736 35.3274 23.5096 35.6908 23.9537 36.073C24.0291 35.8039 24.091 35.5535 24.1583 35.2951C24.2283 35.026 24.2983 34.7784 24.344 34.5173C24.2983 34.7864 24.2444 35.0341 24.1933 35.2951C24.1422 35.5562 24.0479 35.8146 23.9699 36.073C24.0372 36.2964 24.1045 36.5225 24.1691 36.7459L24.3548 37.7902C24.3817 38.1563 24.414 38.5196 24.4409 38.883C24.4409 39.1037 24.4409 39.3271 24.4409 39.5478C24.4409 39.6043 24.5163 39.6555 24.5593 39.7093L24.9281 39.8412L25.3157 39.9892C25.2914 39.6259 25.2699 39.3244 25.2484 39.0203C25.2269 38.7161 25.2484 38.3851 25.2484 38.0648C25.2941 37.5803 25.3372 37.0958 25.383 36.6113L25.4799 36.2937L25.749 35.8039C26.0908 35.5347 26.4569 35.2817 26.7691 34.9749C27.336 34.43 27.875 33.8569 28.3841 33.2576C29.04 32.4733 29.5994 31.613 30.0501 30.6953C30.3582 30.0824 30.6331 29.4535 30.8738 28.8112C31.081 28.2459 31.2075 27.6511 31.3717 27.067C31.3889 27.0259 31.4032 26.9836 31.4148 26.9405C31.7397 25.3792 31.8367 23.7791 31.7028 22.1899ZM25.3507 35.4809L25.1353 35.0045L25.3507 35.4809C25.4583 35.5697 25.5633 35.6612 25.6683 35.75C25.5633 35.6612 25.4583 35.5724 25.3507 35.4809Z" fill="white"/>
</g>
<path d="M60.704 18.476H58.784L55.408 25.708L52 18.476H50.112L48.752 29.5H51.024L51.824 22.668L54.544 28.252H56.288L58.976 22.668L59.776 29.5H62.048L60.704 18.476ZM67.2799 29.692C69.4079 29.692 71.2959 28.124 71.2959 25.772C71.2959 23.404 69.4079 21.836 67.2799 21.836C65.1519 21.836 63.2639 23.404 63.2639 25.772C63.2639 28.124 65.1519 29.692 67.2799 29.692ZM67.2799 27.74C66.2399 27.74 65.3919 26.924 65.3919 25.772C65.3919 24.604 66.2399 23.788 67.2799 23.788C68.3199 23.788 69.1679 24.604 69.1679 25.772C69.1679 26.924 68.3199 27.74 67.2799 27.74ZM77.2826 21.836C76.5466 21.836 75.3626 22.284 75.0426 23.292V22.028H72.9466V29.5H75.0426V25.58C75.0426 24.22 75.9706 23.82 76.7226 23.82C77.4426 23.82 78.1466 24.348 78.1466 25.516V29.5H80.2426V25.404C80.2586 23.164 79.2346 21.836 77.2826 21.836ZM87.8751 22.924C87.3311 22.188 86.3231 21.836 85.4751 21.836C83.5551 21.836 81.8111 23.356 81.8111 25.756C81.8111 28.156 83.5551 29.692 85.4751 29.692C86.3071 29.692 87.3311 29.324 87.8751 28.588V28.796C87.8751 30.732 87.0271 31.484 85.6831 31.484C84.8831 31.484 84.1151 31.004 83.7951 30.316L82.0511 31.068C82.6911 32.46 84.0831 33.356 85.6831 33.356C88.3231 33.356 89.9711 31.836 89.9711 28.572V22.028H87.8751V22.924ZM85.8751 27.74C84.8191 27.74 83.9391 26.844 83.9391 25.756C83.9391 24.652 84.8191 23.788 85.8751 23.788C86.8511 23.788 87.8111 24.604 87.8111 25.756C87.8111 26.892 86.8991 27.74 85.8751 27.74ZM95.6393 29.692C97.7673 29.692 99.6553 28.124 99.6553 25.772C99.6553 23.404 97.7673 21.836 95.6393 21.836C93.5113 21.836 91.6233 23.404 91.6233 25.772C91.6233 28.124 93.5113 29.692 95.6393 29.692ZM95.6393 27.74C94.5993 27.74 93.7513 26.924 93.7513 25.772C93.7513 24.604 94.5993 23.788 95.6393 23.788C96.6793 23.788 97.5273 24.604 97.5273 25.772C97.5273 26.924 96.6793 27.74 95.6393 27.74ZM101.453 18.476V29.5H105.773C108.941 29.5 110.781 27.132 110.781 24.012C110.781 20.876 108.941 18.476 105.773 18.476H101.453ZM103.677 27.532V20.444H105.773C107.613 20.444 108.557 22.124 108.557 24.012C108.557 25.9 107.613 27.532 105.773 27.532H103.677ZM118.924 23.612C120.124 23.244 120.444 22.14 120.444 21.324C120.444 19.66 119.18 18.476 117.212 18.476H112.844V29.5H117.548C119.98 29.5 121.02 27.868 121.02 26.348C121.02 25.1 120.332 23.852 118.924 23.612ZM118.22 21.644C118.22 22.396 117.788 22.86 117.084 22.86H115.068V20.444H117.084C117.868 20.444 118.22 20.972 118.22 21.644ZM115.068 27.532V24.716H117.26C118.316 24.716 118.78 25.436 118.78 26.124C118.78 26.86 118.268 27.532 117.228 27.532H115.068Z" fill="white"/>
<defs>
<linearGradient id="paint0_linear" x1="5.95673" y1="24" x2="138.196" y2="24" gradientUnits="userSpaceOnUse">
<stop stop-color="#599636"/>
<stop offset="1" stop-color="#6CAC48"/>
</linearGradient>
<clipPath id="clip0">
<rect width="14.381" height="32" fill="white" transform="translate(17.3836 8)"/>
</clipPath>
</defs>
</svg>
