<svg xmlns="http://www.w3.org/2000/svg" viewBox="0 0 33.6 33.78"><defs><style>.cls-1{isolation:isolate;}.cls-2{opacity:0.5;mix-blend-mode:multiply;}.cls-3,.cls-5{fill:#1cb1f1;}.cls-4{fill:#fff;}.cls-4,.cls-5{fill-rule:evenodd;}</style></defs><g class="cls-1"><g id="Warstwa_2" data-name="Warstwa 2"><g id="Warstwa_1-2" data-name="Warstwa 1"><g id="Blog_posts" data-name="Blog posts"><g class="cls-2"><circle class="cls-3" cx="17.36" cy="17.53" r="16.25" transform="translate(-3.65 30.46) rotate(-76.9)"/></g><circle class="cls-3" cx="16.25" cy="16.25" r="16.25" transform="translate(-6.73 16.25) rotate(-45)"/><path class="cls-4" d="M23.76,13.39a15,15,0,0,0-.66-2.77c-1.25-1.83-2.31-3.8-5.7-4.2,0,0-.06,0-.06,0l-.11,0A8.88,8.88,0,0,0,14,6.89a14.29,14.29,0,0,0-2.22,1.48A10.35,10.35,0,0,0,10,10.77a9,9,0,0,0,.28,7.74c1.19,1.62,2.81,2.95,3.28,5a18.54,18.54,0,0,0,.21,2.85c.24.84.15,1.91.76,2.51a4.78,4.78,0,0,0,2.87.24,3.17,3.17,0,0,0,2.4-1.07c.42-1.69-.21-3.22-.3-4.56.6-2,1.92-2.88,2.8-4.44C23.4,17.88,23.81,15.23,23.76,13.39Z"/><path class="cls-5" d="M18.23,13.56c.13,0,.08.22.1.34s-.18.1-.34,0A.75.75,0,0,1,18.23,13.56Z"/><path class="cls-5" d="M17.16,13.73a.4.4,0,0,1,.3.44.63.63,0,0,0-.35.09C17,14.17,17.16,13.89,17.16,13.73Z"/><path class="cls-5" d="M17.09,22.39a2.2,2.2,0,0,1-1,0c-.13-1.05-.36-2-.49-3.07a1,1,0,0,0,.71,0c0-.32-.55-.3-.84-.44a18.43,18.43,0,0,0-.82-3.07,22.84,22.84,0,0,1,3.47-1.18A57.45,57.45,0,0,0,17.09,22.39Z"/><path class="cls-4" d="M20,4c.16.52-.29,1.29-.54,1.65C18.89,5.22,19.57,4.05,20,4Z"/><path class="cls-4" d="M15.78,3.24a3.11,3.11,0,0,1,0,2.25A2.47,2.47,0,0,1,15.78,3.24Z"/><path class="cls-4" d="M23.08,5.46c-.3.6-1,.58-1.33,1.16-.16,0-.18.14-.39,0A1.51,1.51,0,0,1,23.08,5.46Z"/><path class="cls-4" d="M12.34,4c.11,0,.13.06.2.09.24.64.9,1.22.82,1.92-.82,0-.72-1.07-1.12-1.54C12.27,4.3,12.3,4.14,12.34,4Z"/><path class="cls-4" d="M24.52,8.16c-.27.55-.62,1-1.24,1C23.28,8.56,24.05,7.85,24.52,8.16Z"/><path class="cls-4" d="M10.67,7.66c-.57.17-1.13-.66-1.17-1A1.2,1.2,0,0,1,10.67,7.66Z"/><path class="cls-4" d="M26,12.14c-.32.44-.85.9-1.37.82C24.86,12.35,25.55,11.87,26,12.14Z"/><path class="cls-4" d="M8.83,9.49c-.21.49-1.18-.07-1.47-.07C7.25,8.74,8.75,9,8.83,9.49Z"/><path class="cls-4" d="M8.17,12.82c-.36.44-1.39.25-1.87.29C6.64,12.64,7.68,12.22,8.17,12.82Z"/><path class="cls-4" d="M26.17,17.27c-.41,0-1-.1-1.12-.44C25.25,16.38,26.37,16.76,26.17,17.27Z"/><path class="cls-4" d="M8.29,16.09c-.3.63-.92.77-1.51,1-.22-.38.3-.41.37-.75C7.45,16.14,7.83,15.77,8.29,16.09Z"/><path class="cls-4" d="M9.13,19.33c.07.68-.66,1.27-1.31,1.33A1.81,1.81,0,0,1,9.13,19.33Z"/><path class="cls-5" d="M17.6,23.15c.26,0,.35.13.57.16a1,1,0,0,1-.53.17C17.63,23.37,17.54,23.31,17.6,23.15Z"/><path class="cls-5" d="M17.06,23.09c.06.13,0,.36,0,.5-.26,0-.47.07-.73.08,0-.21-.07-.41-.09-.63C16.58,23.16,16.76,23,17.06,23.09Z"/><path class="cls-5" d="M15.9,23.69c-.51-.14-.88-.08-1.39-.22C14.85,23.09,16.09,22.74,15.9,23.69Z"/><path class="cls-5" d="M18.75,24.25c.11.07,0,.28.1.35A9,9,0,0,1,15,25.82a1.15,1.15,0,0,1-.07-.5A6.46,6.46,0,0,0,18.75,24.25Z"/><path class="cls-5" d="M18.85,25.15c.1.07,0,.28.09.35a11.62,11.62,0,0,1-3.67,1.63,4,4,0,0,1-.1-.62A8.24,8.24,0,0,0,18.85,25.15Z"/><path class="cls-5" d="M18.92,26.15s.09.07.09.13c-.34.76-1.37,1-2,1.58a7.87,7.87,0,0,1-1.59.29,1.11,1.11,0,0,0-.08-.46A13.18,13.18,0,0,0,18.92,26.15Z"/><path class="cls-5" d="M14.13,14.61c.48,0,.31.43.48.64-.26-.07-.17-.38-.41-.46-.25.26.08.67-.33.86,0,.23.36.19.39.25.22.9.44,1.81.6,2.75A4.77,4.77,0,0,1,12.17,14a4.27,4.27,0,0,0,2.77,5.16c.27,1.08.42,2.25.71,3.32a3.21,3.21,0,0,0-1.31.51c-.68-2.06-2.42-3.42-3.52-5.2-.16-1.45-.87-2.54-.71-4.2.35-3.43,2.17-4.66,4-5.85,1.31-.22,2.42-.77,4.22-.26a4.81,4.81,0,0,1,2.78,2c.13.66.78,1.15,1.06,1.86.2.5.24,1.21.41,1.84.52,2-.52,4.32-1.61,6.16-.76,1.1-1.72,1.9-2.17,3.47a4.28,4.28,0,0,0-1.19-.35,49.65,49.65,0,0,1,1.18-7.89c.1-.26.55,0,.57-.38s-.14-.31-.37-.35c-.09-.32-.15-.66-.63-.73s-.5.21-.73.35a.64.64,0,0,0-1,.19,1.39,1.39,0,0,0-.51-.16.76.76,0,0,0-.47.68.68.68,0,0,0-.93.26c-.76-.63-1.6.35-.94.85C14.21,15.31,13.89,14.75,14.13,14.61ZM19.2,9.24c-1-.23-2.15-.43-2.44.12a4.73,4.73,0,0,1,2.12.1c.83.36,1.24,1.24,1.89,1.58A4.06,4.06,0,0,0,19.2,9.24ZM21.68,12a16.52,16.52,0,0,1-.42,3.21c-.52,1.63-1.89,2.39-2.87,3.38,2.28-.51,3.91-3.63,3.52-6.66-.07,0-.06-.08-.15-.08S21.68,11.9,21.68,12ZM13,11.8c.63-.23.93-1,1.47-1.3A2.49,2.49,0,0,0,13,11.8Z"/><path class="cls-5" d="M18.8,27.34c.09.15-.08.47-.08.69-.51.13-1,.33-1.51.42C17.56,28.09,18.35,27.78,18.8,27.34Z"/></g></g></g></g></svg>