<svg xmlns="http://www.w3.org/2000/svg" viewBox="0 0 33.6 33.78"><defs><style>.cls-1{isolation:isolate;}.cls-2{opacity:0.5;mix-blend-mode:multiply;}.cls-3{fill:#1cb1f1;}.cls-4{fill:#fff;}</style></defs><g class="cls-1"><g id="Warstwa_2" data-name="Warstwa 2"><g id="Warstwa_1-2" data-name="Warstwa 1"><g id="My_stats" data-name="My stats"><g class="cls-2"><circle class="cls-3" cx="17.36" cy="17.53" r="16.25" transform="translate(-3.65 30.46) rotate(-76.9)"/></g><circle class="cls-3" cx="16.25" cy="16.25" r="16.25" transform="translate(-6.73 16.25) rotate(-45)"/><path class="cls-4" d="M9.43,22.12c.05-1.43.08-2.8.13-4.18,0-.79.32-1,1.09-.87a4.37,4.37,0,0,0,.49.12c1.26.17,1.18.16,1.26,1.56,0,.83,0,1.67,0,2.5,0,.3,0,.6,0,.93l1.06,0c-.05-.77-.1-1.52-.15-2.27s.19-1.08,1.05-.92a5.94,5.94,0,0,0,1.52,0c.73-.05,1,.17.9.91s-.06,1.55-.08,2.35l1.23,0c0-.43-.05-.86,0-1.28,0-1.67.06-3.33.09-5,0-.74,0-1.48,0-2.21,0-.53.16-.76.68-.76s1.29,0,1.93.07.81.22.84.89c.1,2.78.2,5.57.3,8.4l4.79.14c0-.41,0-.78,0-1.16.11-3,.21-6,.32-9A12.19,12.19,0,0,1,27,10.85c0-.18.22-.33.34-.5.14.18.38.34.39.52,0,.87,0,1.75,0,2.62-.06,3.15-.14,6.3-.2,9.46,0,.59-.37.68-.83.67l-4.21-.12L3.79,22.94a1.37,1.37,0,0,1-.61-.07c-.16-.07-.25-.27-.37-.42.13-.11.25-.29.4-.32a7.74,7.74,0,0,1,1.08,0l4.78.05Zm11.09.3a4.32,4.32,0,0,0,.09-.58c-.07-2.46-.13-4.92-.21-7.38a.47.47,0,0,0-.29-.31A9.2,9.2,0,0,0,19,14.1c-.08,2.8-.16,5.53-.25,8.27Zm-9.17-.27c0-1.07.07-2.11.09-3.15,0-.79,0-.81-.92-.88l-.12,4Zm4.23.13.07-2.13-1.35,0-.07,2.13Z"/><path class="cls-4" d="M21.29,9.2c-1.43,1.37-2.78,2.65-4.11,3.94-.65.64-1.24,1.33-1.86,2-.45.48-.74.51-1.28.1-.38-.29-.76-.57-1.11-.89a.84.84,0,0,0-1.23-.06c-1,.62-2,1.15-2.95,1.72a.75.75,0,0,1-.2.1c-.33,0-.67,0-1,.06a4,4,0,0,1,.59-.64c1.23-.79,2.48-1.55,3.72-2.31A.9.9,0,0,1,13,13.3l1.57,1.2,5.9-5.83c-.63-1.07-.56-1.22.77-1.47.61-.12,1.21-.3,1.83-.38a1.13,1.13,0,0,1,.86.2c.12.13,0,.58-.11.81a23.18,23.18,0,0,1-1.28,2.08c-.34.5-.57.46-.84-.07Z"/></g></g></g></g></svg>