<svg width="112" height="48" viewBox="0 0 112 48" fill="none" xmlns="http://www.w3.org/2000/svg">
<path d="M0 24C0 10.7452 10.7452 0 24 0H88C101.255 0 112 10.7452 112 24V24C112 37.2548 101.255 48 88 48H24C10.7452 48 0 37.2548 0 24V24Z" fill="url(#paint0_linear)"/>
<path d="M15.69 18.8935H21.5369V19.3597H16.226V22.8687H21.2202V23.3349H16.226V27.1874H21.5978V27.6536H15.69V18.8935ZM22.0607 18.8935H22.6819L25.4348 22.746L28.2486 18.8935L32.0759 14L25.7881 23.1509L29.0282 27.6536H28.3826L25.4348 23.5557L22.4748 27.6536H21.8414L25.1059 23.1509L22.0607 18.8935ZM29.2596 19.3597V18.8935H35.9227V19.3597H32.853V27.6536H32.3171V19.3597H29.2596ZM8.37531 18.8935H9.04526L18.2836 32.7625L14.4658 27.6536L8.93563 19.556L8.91127 27.6536H8.37531V18.8935ZM35.8687 27.0467C35.7592 27.0467 35.677 26.9616 35.677 26.8516C35.677 26.7416 35.7592 26.6564 35.8687 26.6564C35.9795 26.6564 36.0603 26.7416 36.0603 26.8516C36.0603 26.9616 35.9795 27.0467 35.8687 27.0467ZM36.3953 26.5333H36.6821C36.686 26.6892 36.7994 26.7939 36.9663 26.7939C37.1527 26.7939 37.2583 26.6813 37.2583 26.4705V25.1348H37.5503V26.4718C37.5503 26.8516 37.3313 27.0702 36.9689 27.0702C36.6286 27.0702 36.3953 26.8581 36.3953 26.5333ZM37.9322 26.5163H38.2216C38.2464 26.6957 38.4211 26.8097 38.6727 26.8097C38.9073 26.8097 39.0794 26.6879 39.0794 26.5203C39.0794 26.3762 38.9699 26.2898 38.7209 26.2309L38.4784 26.1719C38.1382 26.092 37.9831 25.927 37.9831 25.6494C37.9831 25.3129 38.2568 25.089 38.6675 25.089C39.0494 25.089 39.3284 25.3129 39.3453 25.6311H39.0611C39.0338 25.4569 38.8825 25.3482 38.6635 25.3482C38.4328 25.3482 38.279 25.4595 38.279 25.6298C38.279 25.7647 38.3781 25.8419 38.6231 25.8995L38.8304 25.9506C39.2163 26.041 39.3753 26.1981 39.3753 26.4823C39.3753 26.8437 39.0963 27.0702 38.6505 27.0702C38.2334 27.0702 37.9531 26.8542 37.9322 26.5163Z" fill="white"/>
<path d="M55.344 16.976V23.808L51.408 16.976H49.344V28H51.568V21.088L55.568 28H57.568V16.976H55.344ZM67.198 24.144C67.198 21.856 65.454 20.352 63.326 20.352C61.182 20.352 59.358 21.856 59.358 24.272C59.358 26.576 61.038 28.144 63.326 28.144C64.638 28.144 65.95 27.632 66.654 26.688L65.422 25.456C64.974 25.984 64.222 26.288 63.47 26.288C62.462 26.288 61.758 25.808 61.534 24.944H67.166C67.182 24.608 67.198 24.352 67.198 24.144ZM61.534 23.584C61.758 22.576 62.51 22.176 63.358 22.176C64.302 22.176 65.038 22.704 65.102 23.584H61.534ZM75.7408 28L72.8128 23.952L75.2768 20.544H72.8128L71.6608 22.256L70.4768 20.544H67.9967L70.4608 23.952L67.5008 28H69.9648L71.6448 25.616L73.2928 28H75.7408ZM81.2373 20.544H79.6533V17.808H77.5573V20.544H76.1973V22.16H77.5573V28H79.6533V22.16H81.2373V20.544ZM81.6589 31.76C84.2669 31.76 85.2429 30.064 85.2429 28.048V16.976H83.0189V28.048C83.0189 28.928 82.6349 29.664 81.6589 29.664C81.5629 29.664 80.7309 29.648 80.2989 29.488L80.1069 31.52C80.6509 31.68 81.3549 31.76 81.6589 31.76ZM91.2818 28.144C93.3618 28.144 95.2338 26.992 95.2338 24.8C95.2338 22.928 93.7778 22.048 92.1138 21.584L90.8818 21.232C89.7298 20.912 89.6498 20.336 89.6498 20.064C89.6498 19.328 90.3058 18.8 91.1698 18.8C92.1298 18.8 92.6738 19.408 92.6738 20.192H94.8978C94.8978 18.096 93.2978 16.832 91.2178 16.832C89.1058 16.832 87.4098 18.144 87.4098 20.112C87.4098 21.104 87.8418 22.56 90.2578 23.2L91.6018 23.584C92.5458 23.872 92.9938 24.304 92.9938 24.912C92.9938 25.696 92.3378 26.208 91.3458 26.208C90.3218 26.208 89.5538 25.552 89.5378 24.752H87.3138C87.3138 26.704 88.9298 28.144 91.2818 28.144Z" fill="white"/>
<defs>
<linearGradient id="paint0_linear" x1="4.83444" y1="24" x2="112.159" y2="24" gradientUnits="userSpaceOnUse">
<stop/>
<stop offset="1" stop-color="#393939"/>
</linearGradient>
</defs>
</svg>
