<svg width="118" height="48" viewBox="0 0 118 48" fill="none" xmlns="http://www.w3.org/2000/svg">
<path d="M0 24C0 10.7452 10.7452 0 24 0H94C107.255 0 118 10.7452 118 24C118 37.2548 107.255 48 94 48H24C10.7452 48 0 37.2548 0 24Z" fill="url(#paint0_linear)"/>
<path d="M36.1695 15.5835L25.1338 9.18225C24.4385 8.78625 23.5278 8.78625 22.827 9.18225L11.705 15.5835C10.9877 15.9963 10.5 16.772 10.5 17.6018V30.3873C10.5 31.217 10.998 31.993 11.7155 32.408L14.6477 34.08C16.0545 34.773 16.4443 34.773 17.0843 34.773C19.1678 34.773 20.2498 33.5133 20.2498 31.316V18.6935C20.25 18.5153 20.3612 18.25 20.186 18.25H18.7805C18.6025 18.25 18.25 18.5153 18.25 18.6933V31.3158C18.25 32.2898 17.346 33.259 15.6995 32.4358L12.669 30.6825C12.5635 30.625 12.5 30.5093 12.5 30.3873V17.6018C12.5 17.4813 12.6158 17.3603 12.7228 17.2985L23.8173 10.9083C23.921 10.8495 24.0677 10.8495 24.171 10.9083L35.1618 17.297C35.267 17.3603 35.2502 17.4775 35.2502 17.6018V30.3873C35.2502 30.5093 35.2733 30.628 35.1695 30.6868L24.1362 37.0808C24.0417 37.1375 23.9187 37.1375 23.815 37.0808L20.9858 35.3935C20.9005 35.344 20.7977 35.3263 20.7157 35.372C19.9295 35.8178 19.7835 35.877 19.046 36.1328C18.8642 36.196 18.5962 36.3058 19.148 36.615L22.8475 38.8035C23.2015 39.0085 23.6043 39.115 24.0093 39.115C24.4198 39.115 24.8215 39.0085 25.1758 38.8035L36.1698 32.408C36.8875 31.99 37.2502 31.217 37.2502 30.3873V17.6018C37.25 16.772 36.8873 15.9983 36.1695 15.5835ZM27.4317 28.3613C24.5 28.3613 23.8545 27.5525 23.6392 26.0948C23.6137 25.9378 23.4808 25.75 23.3208 25.75H21.8883C21.711 25.75 21.5682 25.965 21.5682 26.1415C21.5682 28.008 22.5833 30.2695 27.4317 30.2695C30.9412 30.2695 32.9538 28.9058 32.9538 26.4923C32.9538 24.0993 31.337 23.4713 27.9333 23.0208C24.4928 22.566 24.1432 22.3363 24.1432 21.5303C24.1432 20.8658 24.4392 19.9795 26.9867 19.9795C29.2627 19.9795 30.1018 20.468 30.447 22.0023C30.4768 22.1465 30.6085 22.25 30.7572 22.25H32.1957C32.2842 22.25 32.3685 22.2143 32.4305 22.151C32.4907 22.083 32.5222 21.9978 32.5145 21.9063C32.2913 19.264 30.5362 18.0328 26.9865 18.0328C23.8285 18.0328 21.945 19.3663 21.945 21.6015C21.945 24.026 23.8193 24.696 26.8505 24.9958C30.4767 25.3513 30.7588 25.8813 30.7588 26.5945C30.7588 27.8335 29.7642 28.3613 27.4317 28.3613Z" fill="white"/>
<path d="M55.344 16.976V23.808L51.408 16.976H49.344V28H51.568V21.088L55.568 28H57.568V16.976H55.344ZM63.358 28.144C65.486 28.144 67.374 26.608 67.374 24.256C67.374 21.888 65.486 20.352 63.358 20.352C61.23 20.352 59.342 21.888 59.342 24.256C59.342 26.608 61.23 28.144 63.358 28.144ZM63.358 26.192C62.318 26.192 61.47 25.408 61.47 24.256C61.47 23.088 62.318 22.304 63.358 22.304C64.398 22.304 65.246 23.088 65.246 24.256C65.246 25.408 64.398 26.192 63.358 26.192ZM74.6408 16.56V21.44C74.1128 20.688 73.1048 20.368 72.2408 20.368C70.3207 20.368 68.5768 21.856 68.5768 24.256C68.5768 26.656 70.3207 28.144 72.2408 28.144C73.0728 28.144 74.1128 27.808 74.6408 27.072V28H76.7368V16.56H74.6408ZM72.6408 26.192C71.5848 26.192 70.7048 25.344 70.7048 24.256C70.7048 23.152 71.5848 22.336 72.6408 22.336C73.6168 22.336 74.5768 23.104 74.5768 24.256C74.5768 25.392 73.6648 26.192 72.6408 26.192ZM86.2449 24.144C86.2449 21.856 84.5009 20.352 82.3729 20.352C80.2289 20.352 78.4049 21.856 78.4049 24.272C78.4049 26.576 80.0849 28.144 82.3729 28.144C83.6849 28.144 84.9969 27.632 85.7009 26.688L84.4689 25.456C84.0209 25.984 83.2689 26.288 82.5169 26.288C81.5089 26.288 80.8049 25.808 80.5809 24.944H86.2129C86.2289 24.608 86.2449 24.352 86.2449 24.144ZM80.5809 23.584C80.8049 22.576 81.5569 22.176 82.4049 22.176C83.3489 22.176 84.0849 22.704 84.1489 23.584H80.5809ZM86.9245 31.76C89.5325 31.76 90.5085 30.064 90.5085 28.048V16.976H88.2845V28.048C88.2845 28.928 87.9005 29.664 86.9245 29.664C86.8285 29.664 85.9965 29.648 85.5645 29.488L85.3725 31.52C85.9165 31.68 86.6205 31.76 86.9245 31.76ZM96.5474 28.144C98.6274 28.144 100.499 26.992 100.499 24.8C100.499 22.928 99.0434 22.048 97.3794 21.584L96.1474 21.232C94.9954 20.912 94.9154 20.336 94.9154 20.064C94.9154 19.328 95.5714 18.8 96.4354 18.8C97.3954 18.8 97.9394 19.408 97.9394 20.192H100.163C100.163 18.096 98.5634 16.832 96.4834 16.832C94.3714 16.832 92.6754 18.144 92.6754 20.112C92.6754 21.104 93.1074 22.56 95.5234 23.2L96.8674 23.584C97.8114 23.872 98.2594 24.304 98.2594 24.912C98.2594 25.696 97.6034 26.208 96.6114 26.208C95.5874 26.208 94.8194 25.552 94.8034 24.752H92.5794C92.5794 26.704 94.1954 28.144 96.5474 28.144Z" fill="white"/>
<defs>
<linearGradient id="paint0_linear" x1="5.09343" y1="24" x2="118.168" y2="24" gradientUnits="userSpaceOnUse">
<stop stop-color="#83CD29"/>
<stop offset="1" stop-color="#83CD29"/>
</linearGradient>
</defs>
</svg>
