<svg width="122" height="48" viewBox="0 0 122 48" fill="none" xmlns="http://www.w3.org/2000/svg">
<path d="M0 24C0 10.7452 10.7452 0 24 0H98C111.255 0 122 10.7452 122 24C122 37.2548 111.255 48 98 48H24C10.7452 48 0 37.2548 0 24Z" fill="url(#paint0_linear)"/>
<path d="M24 26.85C25.574 26.85 26.85 25.574 26.85 24C26.85 22.426 25.574 21.15 24 21.15C22.426 21.15 21.15 22.426 21.15 24C21.15 25.574 22.426 26.85 24 26.85Z" fill="white"/>
<path d="M34.825 19.3C34.275 19.1 33.7 18.9 33.1 18.725C33.25 18.125 33.375 17.525 33.475 16.95C34 13.65 33.425 11.325 31.825 10.425C31.35 10.15 30.825 10.025 30.225 10.025C28.475 10.025 26.25 11.325 24 13.5C21.75 11.325 19.525 10.025 17.775 10.025C17.175 10.025 16.65 10.15 16.175 10.425C14.575 11.35 14 13.675 14.525 16.95C14.625 17.525 14.75 18.125 14.9 18.725C14.3 18.9 13.725 19.075 13.175 19.3C10.05 20.5 8.34998 22.15 8.34998 24C8.34998 25.85 10.075 27.5 13.175 28.7C13.725 28.9 14.3 29.1 14.9 29.275C14.75 29.875 14.625 30.475 14.525 31.05C14 34.35 14.575 36.675 16.175 37.575C16.65 37.85 17.175 37.975 17.775 37.975C19.55 37.975 21.775 36.675 24 34.5C26.25 36.675 28.475 37.975 30.225 37.975C30.825 37.975 31.35 37.85 31.825 37.575C33.425 36.65 34 34.325 33.475 31.05C33.375 30.475 33.25 29.875 33.1 29.275C33.7 29.1 34.275 28.925 34.825 28.7C37.95 27.5 39.65 25.85 39.65 24C39.65 22.15 37.95 20.5 34.825 19.3ZM31.125 11.675C32.15 12.275 32.5 14.125 32.075 16.75C32 17.275 31.875 17.825 31.725 18.4C30.425 18.1 29.05 17.9 27.6 17.775C26.75 16.575 25.875 15.5 25 14.525C26.85 12.7 28.725 11.45 30.25 11.45C30.575 11.45 30.875 11.525 31.125 11.675ZM28.325 26.5C27.875 27.3 27.35 28.1 26.8 28.9C25.875 28.975 24.95 29 24 29C23.025 29 22.1 28.975 21.2 28.9C20.65 28.1 20.15 27.3 19.7 26.5C19.225 25.675 18.775 24.825 18.375 24C18.775 23.175 19.225 22.325 19.7 21.5C20.15 20.7 20.675 19.9 21.225 19.1C22.15 19.025 23.075 19 24.025 19C25 19 25.925 19.025 26.825 19.1C27.375 19.9 27.875 20.7 28.325 21.5C28.8 22.325 29.25 23.175 29.65 24C29.225 24.825 28.8 25.65 28.325 26.5ZM30.4 25.675C30.775 26.55 31.075 27.4 31.35 28.25C30.5 28.45 29.6 28.6 28.65 28.725C28.95 28.25 29.275 27.75 29.55 27.225C29.85 26.7 30.125 26.175 30.4 25.675ZM24 32.45C23.4 31.8 22.825 31.1 22.275 30.375C22.85 30.4 23.425 30.425 24 30.425C24.575 30.425 25.15 30.4 25.725 30.375C25.175 31.1 24.6 31.8 24 32.45ZM19.35 28.7C18.4 28.575 17.5 28.425 16.65 28.225C16.925 27.4 17.225 26.525 17.6 25.65C17.875 26.15 18.15 26.675 18.45 27.175C18.75 27.725 19.05 28.2 19.35 28.7ZM17.6 22.325C17.225 21.45 16.925 20.6 16.65 19.75C17.5 19.55 18.4 19.4 19.35 19.275C19.05 19.75 18.725 20.25 18.45 20.775C18.15 21.3 17.875 21.825 17.6 22.325ZM24 15.55C24.6 16.2 25.175 16.9 25.725 17.625C25.15 17.6 24.575 17.575 24 17.575C23.425 17.575 22.85 17.6 22.275 17.625C22.825 16.9 23.4 16.2 24 15.55ZM29.55 20.8L28.65 19.3C29.6 19.425 30.5 19.575 31.35 19.775C31.075 20.6 30.775 21.475 30.4 22.35C30.125 21.825 29.85 21.3 29.55 20.8ZM15.925 16.75C15.5 14.125 15.85 12.275 16.875 11.675C17.125 11.525 17.425 11.45 17.75 11.45C19.25 11.45 21.125 12.675 23 14.525C22.125 15.475 21.25 16.575 20.4 17.775C18.95 17.9 17.575 18.125 16.275 18.4C16.125 17.825 16.025 17.275 15.925 16.75ZM9.74998 24C9.74998 22.825 11.175 21.575 13.675 20.65C14.175 20.45 14.725 20.275 15.275 20.125C15.675 21.375 16.175 22.7 16.775 24.025C16.175 25.35 15.65 26.65 15.275 27.9C11.825 26.9 9.74998 25.4 9.74998 24ZM16.875 36.325C15.85 35.725 15.5 33.875 15.925 31.25C16 30.725 16.125 30.175 16.275 29.6C17.575 29.9 18.95 30.1 20.4 30.225C21.25 31.425 22.125 32.5 23 33.475C21.15 35.3 19.275 36.55 17.75 36.55C17.425 36.55 17.125 36.475 16.875 36.325ZM32.075 31.25C32.5 33.875 32.15 35.725 31.125 36.325C30.875 36.475 30.575 36.55 30.25 36.55C28.75 36.55 26.875 35.325 25 33.475C25.875 32.525 26.75 31.425 27.6 30.225C29.05 30.1 30.425 29.875 31.725 29.6C31.875 30.175 31.975 30.725 32.075 31.25ZM34.325 27.35C33.825 27.55 33.275 27.725 32.725 27.875C32.325 26.625 31.825 25.3 31.225 23.975C31.825 22.65 32.35 21.35 32.725 20.1C36.175 21.1 38.25 22.6 38.25 24C38.25 25.175 36.8 26.425 34.325 27.35Z" fill="white"/>
<path d="M57.552 29.5L54.704 25.452C56.256 25.18 57.36 23.644 57.36 22.076C57.36 20.268 56.272 18.476 53.744 18.476H49.344V29.5H51.568V25.548H52.32L54.944 29.5H57.552ZM53.52 20.444C54.56 20.444 55.12 21.244 55.12 22.124C55.12 23.004 54.592 23.756 53.344 23.756H51.568V20.444H53.52ZM66.2609 25.644C66.2609 23.356 64.5169 21.836 62.3729 21.836C60.2449 21.836 58.4049 23.356 58.4049 25.772C58.4049 28.076 60.0849 29.692 62.3889 29.692C63.7009 29.692 64.9969 29.132 65.7009 28.188L64.4849 26.956C64.0209 27.484 63.2849 27.836 62.5169 27.836C61.5249 27.836 60.8209 27.324 60.5969 26.444H66.2129C66.2449 26.108 66.2609 25.852 66.2609 25.644ZM60.5969 25.084C60.8209 24.076 61.5569 23.644 62.4209 23.644C63.3649 23.644 64.0849 24.204 64.1489 25.084H60.5969ZM73.5001 23.02C73.0041 22.252 72.0441 21.836 71.0841 21.836C68.9401 21.836 67.4361 23.452 67.4361 25.772C67.4361 28.092 68.9721 29.692 71.0361 29.692C72.0441 29.692 73.0041 29.196 73.5001 28.428V29.5H75.5961V22.028H73.5001V23.02ZM71.5001 27.74C70.3961 27.74 69.5801 26.812 69.5801 25.772C69.5801 24.684 70.3961 23.788 71.4841 23.788C72.5241 23.788 73.4361 24.636 73.4361 25.772C73.4361 26.844 72.5561 27.74 71.5001 27.74ZM81.3443 29.692C82.7043 29.692 83.7923 29.068 84.4963 28.092L82.9123 26.988C82.5763 27.452 81.9523 27.74 81.3602 27.74C80.1763 27.74 79.3763 26.844 79.3763 25.74C79.3763 24.652 80.1763 23.788 81.3602 23.788C81.9523 23.788 82.5763 24.076 82.9123 24.54L84.4963 23.436C83.7923 22.46 82.7043 21.836 81.3443 21.836C79.1683 21.836 77.2483 23.372 77.2483 25.74C77.2483 28.108 79.1683 29.692 81.3443 29.692ZM88.8095 22.028V19.308H86.7135V22.028H85.3535V23.66H86.7135V29.5H88.8095V23.66H90.3935V22.028H88.8095ZM90.8151 33.26C93.4231 33.26 94.3991 31.564 94.3991 29.548V18.476H92.1751V29.548C92.1751 30.428 91.7911 31.164 90.8151 31.164C90.7191 31.164 89.8871 31.148 89.4551 30.988L89.2631 33.02C89.8071 33.18 90.5111 33.26 90.8151 33.26ZM100.438 29.692C102.518 29.692 104.39 28.492 104.39 26.3C104.39 24.428 102.934 23.58 101.27 23.084L100.038 22.732C98.886 22.396 98.806 21.836 98.806 21.564C98.806 20.828 99.462 20.252 100.326 20.252C101.286 20.252 101.83 20.86 101.83 21.644H104.054C104.054 19.548 102.454 18.284 100.374 18.284C98.262 18.284 96.566 19.644 96.566 21.612C96.566 22.604 96.998 24.06 99.414 24.7L100.758 25.084C101.702 25.372 102.15 25.804 102.15 26.412C102.15 27.196 101.494 27.74 100.502 27.74C99.478 27.74 98.71 27.084 98.694 26.3H96.47C96.47 28.236 98.086 29.692 100.438 29.692Z" fill="white"/>
<defs>
<linearGradient id="paint0_linear" x1="5.26609" y1="24" x2="122.173" y2="24" gradientUnits="userSpaceOnUse">
<stop stop-color="#61C0FB"/>
<stop offset="1" stop-color="#61DAFB"/>
</linearGradient>
</defs>
</svg>
