<svg width="111" height="48" viewBox="0 0 111 48" fill="none" xmlns="http://www.w3.org/2000/svg">
<path d="M0 24C0 10.7452 10.7452 0 24 0H87C100.255 0 111 10.7452 111 24C111 37.2548 100.255 48 87 48H24C10.7452 48 0 37.2548 0 24Z" fill="url(#paint0_linear)"/>
<path d="M30.1725 30.0275C27.9225 34.6275 23.9825 37.7225 18.77 38.74C17.9708 38.9358 17.1503 39.0315 16.3275 39.025C13.3275 39.025 10.5775 37.775 9.24248 35.7275C7.44998 33 6.83998 27.2175 12.75 22.94C12.87 23.5925 13.115 24.4875 13.2775 25.0175C12.1173 25.8794 11.1677 26.9932 10.5 28.275C9.39998 30.435 9.52248 32.5925 10.825 34.5875C11.725 35.9325 13.15 36.75 14.9825 37C17.2713 37.2897 19.5933 36.8524 21.62 35.75C24.7975 34.08 26.915 32.085 28.3 29.3575C27.9084 28.9528 27.6766 28.4199 27.6475 27.8575C27.6266 27.254 27.8459 26.6668 28.2574 26.2248C28.6689 25.7828 29.239 25.5221 29.8425 25.5H29.9275C30.5145 25.4971 31.0801 25.7199 31.5074 26.1224C31.9347 26.5249 32.1909 27.0762 32.223 27.6623C32.2551 28.2484 32.0607 28.8245 31.68 29.2712C31.2992 29.718 30.7613 30.0013 30.1775 30.0625L30.1725 30.0275ZM37.34 24.9775C40.3925 28.4375 40.475 32.51 39.295 34.8725C38.195 37.03 35.295 39.19 31.395 39.19C29.5744 39.1529 27.7834 38.7222 26.145 37.9275C26.7175 37.52 27.53 36.8675 27.9775 36.46C29.241 37.0074 30.6007 37.298 31.9775 37.315C34.5025 37.315 36.415 36.135 37.555 33.9775C38.2875 32.5525 38.33 30.8825 37.6375 29.1725C36.7878 27.021 35.2757 25.1955 33.32 23.96C30.7542 22.2304 27.7294 21.3083 24.635 21.3125H23.9025C23.7317 21.7071 23.4538 22.0459 23.1003 22.2907C22.7469 22.5355 22.3319 22.6764 21.9025 22.6975H21.825C21.231 22.6902 20.6633 22.4516 20.2424 22.0325C19.8215 21.6133 19.5806 21.0466 19.5708 20.4527C19.5611 19.8588 19.7832 19.2844 20.1901 18.8517C20.597 18.4189 21.1566 18.1618 21.75 18.135H21.8325C22.246 18.1353 22.6514 18.2496 23.0043 18.4652C23.3571 18.6809 23.6436 18.9896 23.8325 19.3575H24.485C29.685 19.3575 34.25 21.3525 37.34 24.9775ZM16.6525 30.7275C16.6097 30.3124 16.7102 29.8951 16.9375 29.545C14.6575 25.595 13.4375 20.5875 15.31 15.375C16.6525 11.4575 20.0325 8.81 23.6975 8.81C27.6075 8.81 31.68 12.2325 32.1675 18.8275C31.5575 18.625 30.6675 18.3275 30.1325 18.2175C30 16.06 28.1775 10.685 23.86 10.765C22.3125 10.8075 20.0325 11.54 18.86 13.045C17.4096 14.8415 16.5659 17.0515 16.45 19.3575C16.1752 22.5194 16.917 25.6865 18.5675 28.3975C18.6586 28.3642 18.7557 28.3506 18.8525 28.3575H18.9325C19.5372 28.3466 20.1215 28.5763 20.5568 28.9961C20.9921 29.416 21.2428 29.9916 21.2537 30.5962C21.2647 31.2009 21.035 31.7852 20.6151 32.2205C20.1953 32.6559 19.6197 32.9066 19.015 32.9175H18.9325C18.3426 32.9154 17.7762 32.6857 17.3514 32.2763C16.9267 31.867 16.6763 31.3094 16.6525 30.72V30.7275Z" fill="white"/>
<path d="M57.552 29.5L54.704 25.452C56.256 25.18 57.36 23.644 57.36 22.076C57.36 20.268 56.272 18.476 53.744 18.476H49.344V29.5H51.568V25.548H52.32L54.944 29.5H57.552ZM53.52 20.444C54.56 20.444 55.12 21.244 55.12 22.124C55.12 23.004 54.592 23.756 53.344 23.756H51.568V20.444H53.52ZM66.2609 25.644C66.2609 23.356 64.5169 21.836 62.3729 21.836C60.2449 21.836 58.4049 23.356 58.4049 25.772C58.4049 28.076 60.0849 29.692 62.3889 29.692C63.7009 29.692 64.9969 29.132 65.7009 28.188L64.4849 26.956C64.0209 27.484 63.2849 27.836 62.5169 27.836C61.5249 27.836 60.8209 27.324 60.5969 26.444H66.2129C66.2449 26.108 66.2609 25.852 66.2609 25.644ZM60.5969 25.084C60.8209 24.076 61.5569 23.644 62.4209 23.644C63.3649 23.644 64.0849 24.204 64.1489 25.084H60.5969ZM73.5001 22.94C72.9721 22.172 71.9641 21.836 71.1001 21.836C69.1801 21.836 67.4361 23.356 67.4361 25.756C67.4361 28.156 69.1801 29.692 71.1001 29.692C71.9321 29.692 72.9721 29.34 73.5001 28.572V29.5H75.5961V17.964H73.5001V22.94ZM71.5001 27.74C70.4441 27.74 69.5641 26.844 69.5641 25.756C69.5641 24.652 70.4441 23.788 71.5001 23.788C72.4761 23.788 73.4361 24.604 73.4361 25.756C73.4361 26.892 72.5241 27.74 71.5001 27.74ZM82.8163 25.98C82.8163 27.324 81.8883 27.74 81.1363 27.74C80.4163 27.74 79.7123 27.196 79.7123 26.028V22.028H77.6163V26.14C77.6003 28.38 78.6243 29.692 80.5763 29.692C81.3123 29.692 82.4963 29.26 82.8163 28.284V29.5H84.9123V22.028H82.8163V25.98ZM91.3128 25.452L93.7768 22.028H91.3128L90.1608 23.756L88.9768 22.028H86.4967L88.9608 25.452L86.0008 29.5H88.4648L90.1448 27.116L91.7928 29.5H94.2408L91.3128 25.452Z" fill="white"/>
<defs>
<linearGradient id="paint0_linear" x1="4.79128" y1="24" x2="111.158" y2="24" gradientUnits="userSpaceOnUse">
<stop stop-color="#764ABC"/>
<stop offset="1" stop-color="#9C4ABC"/>
</linearGradient>
</defs>
</svg>
