<svg xmlns="http://www.w3.org/2000/svg" viewBox="0 0 33.6 33.78"><defs><style>.cls-1{isolation:isolate;}.cls-2{opacity:0.5;mix-blend-mode:multiply;}.cls-3{fill:#1cb1f1;}.cls-4{fill:#fff;}</style></defs><g class="cls-1"><g id="Warstwa_2" data-name="Warstwa 2"><g id="Warstwa_1-2" data-name="Warstwa 1"><g id="Technologies"><g class="cls-2"><circle class="cls-3" cx="17.36" cy="17.53" r="16.25" transform="translate(-3.65 30.46) rotate(-76.9)"/></g><circle class="cls-3" cx="16.25" cy="16.25" r="16.25" transform="translate(-6.73 16.25) rotate(-45)"/><path class="cls-4" d="M16.28,24.56c-.72-.1-1.26-.21-1.8-.24a1.06,1.06,0,0,0-.74.2c-.81.77-1.57,1.59-2.37,2.36a2.74,2.74,0,0,1-.72.38c-.1-.28-.31-.56-.29-.83.09-.95.27-1.9.4-2.85a2.75,2.75,0,0,0,0-.41l-1.55-1a6.77,6.77,0,0,0-2,2.27c-.57.86-.6.86-1.23,0a3.75,3.75,0,0,1-.22-4.77c.42-.62.8-1.27,1.23-1.88a1.57,1.57,0,0,1,.69-.62c.74-.23.89-.76.94-1.43.21-2.75,1.63-4.89,3.36-6.94s4.19-3.37,6.55-4.68a.78.78,0,0,1,1,.15A6.34,6.34,0,0,1,21.39,7.1c.27.85.69,1.64.92,2.5a11.8,11.8,0,0,1-2.23,10.62.71.71,0,0,0,0,1c1.95,3,.87,5.38-1.23,7.73-.32.36-1.07.34-1.63.42a1,1,0,0,1-.29-.71A4.89,4.89,0,0,0,16.28,24.56Zm-1.27-1c.24-.09.6-.11.8-.3a36.06,36.06,0,0,0,3.3-3.36A10.61,10.61,0,0,0,21.76,12c-.05-.48-.15-.68-.67-.8-1.35-.3-2.68-.68-4-1.09C16,9.76,14.9,9.33,13.79,9a.91.91,0,0,0-.8.2,17.92,17.92,0,0,0-2.13,2.65A11.22,11.22,0,0,0,10,21.25c.11.37.58.64,1,1.05a14.67,14.67,0,0,1,3-4.78,2.8,2.8,0,0,1,.91-.47c.15.3.42.61.41.91C15.23,19.77,15.11,21.57,15,23.58ZM19,5.19,18.9,5a21.6,21.6,0,0,0-4.83,3.13,1,1,0,0,0,.73-.1c.55-.38,1.07-.82,1.63-1.2C17.28,6.29,18.15,5.75,19,5.19ZM8.43,20.65c.45.51.45.52,0,.81-.62.42-1.25.83-1.86,1.26a6,6,0,0,0-.55.45l.17.21c.91-.64,1.83-1.26,2.71-1.94.12-.09,0-.47,0-.72A2.74,2.74,0,0,0,8.43,20.65ZM21.16,8.75,21,8.67,19.53,9.91c.77.55,1.1-.12,1.5-.46C21.17,9.33,21.12,9,21.16,8.75ZM20.73,8l-.19-.22L18.33,9.55l.16.19C19.44,9.43,20,8.57,20.73,8Zm-7.32,15.8c-1.06-.06-2.1.71-2,1.35ZM17.29,9.1l.19.29a16.72,16.72,0,0,0,2.59-2.25Zm-.22,15,.13.14,2.5-1.81-.17-.22Zm.86,2.3,1-.84-.07-.08-.9.43a.84.84,0,0,1,.17-.54c.1-.13.21-.24.43-.49C17.48,25.41,17.45,25.48,17.93,26.35ZM17.06,7.47,17,7.32,15.21,8.45l.13.21C16.08,8.51,16.49,7.88,17.06,7.47ZM5.77,22.31l.18.26L7.86,21.2l-.11-.14Zm14.1,3.58-.12-.22L17.92,26.8l.13.2Z"/><path class="cls-4" d="M15.16,15.26c-.18-.06-.37-.11-.55-.18a1.68,1.68,0,0,1-.85-2.55,3.21,3.21,0,0,1,2-1.65c1.06-.31,1.75.39,2.4,1a2,2,0,0,1,.17,2.3A2.59,2.59,0,0,1,15.16,15.26Zm.75-1.41c.67.22,1.36-.08,1.42-.67.09-.82-.74-.67-1.17-.86-.18-.08-.76.34-.91.65C15,13.6,15.62,13.66,15.91,13.85Zm-.4-2.17c-.92.45-1.55,1.5-1.33,2.05a2.18,2.18,0,0,0,2.19.95C14.16,13.63,14.12,13.5,15.51,11.68Z"/></g></g></g></g></svg>