<svg width="143" height="48" viewBox="0 0 143 48" fill="none" xmlns="http://www.w3.org/2000/svg">
<path d="M0 24C0 10.7452 10.7452 0 24 0H119C132.255 0 143 10.7452 143 24V24C143 37.2548 132.255 48 119 48H24C10.7452 48 0 37.2548 0 24V24Z" fill="url(#paint0_linear)"/>
<path d="M24 8C15.1631 8 8 15.1631 8 24C8 32.8369 15.1631 40 24 40C27.8469 40.0058 31.5661 38.6199 34.4713 36.0981C34.2394 36.1106 33.9969 36.1162 33.7456 36.1162C30.4237 36.1162 28.5775 34.04 27.66 32.4825L30.6719 30.67C30.6719 30.67 31.6962 32.8475 33.6169 32.8475C35.5375 32.8475 36.3044 32.2069 36.3044 30.7337C36.3044 28.9406 30.0925 28.3006 29.1319 25.2269C28.1712 22.1531 29.4544 17.8006 33.9375 18.1213C36.7394 18.3213 38.3125 19.6969 39.1031 20.7006L36.115 22.86C35.4744 21.0031 32.8488 21.0031 32.3363 22.54C31.8238 24.0769 33.5531 24.9731 36.2431 25.87C37.625 26.33 38.7363 27.1825 39.4475 28.1825C39.8154 26.8188 40.0012 25.4124 40 24C40 15.1631 32.8369 8 24 8ZM26.8088 21.825H21.8194V35.7781H18.1831V21.825H13.1944V18.6119H26.8088V21.825Z" fill="white"/>
<path d="M56.624 16.976H48.32V18.944H51.36V28H53.584V18.944H56.624V16.976ZM61.5595 20.544L59.8475 24.848L58.0875 20.544H55.7835L58.7275 27.296L56.9675 31.664H59.2075L63.8155 20.544H61.5595ZM69.427 20.352C68.579 20.352 67.555 20.688 67.027 21.44V20.544H64.931V31.664H67.027V27.072C67.555 27.824 68.579 28.144 69.427 28.144C71.347 28.144 73.091 26.656 73.091 24.256C73.091 21.856 71.347 20.352 69.427 20.352ZM69.027 26.176C68.051 26.176 67.091 25.408 67.091 24.256C67.091 23.12 68.003 22.32 69.027 22.32C70.083 22.32 70.947 23.168 70.947 24.256C70.947 25.36 70.083 26.176 69.027 26.176ZM82.1511 24.144C82.1511 21.856 80.4071 20.352 78.2791 20.352C76.1351 20.352 74.3111 21.856 74.3111 24.272C74.3111 26.576 75.9911 28.144 78.2791 28.144C79.5911 28.144 80.9031 27.632 81.6071 26.688L80.3751 25.456C79.9271 25.984 79.1751 26.288 78.4231 26.288C77.4151 26.288 76.7111 25.808 76.4871 24.944H82.1191C82.1351 24.608 82.1511 24.352 82.1511 24.144ZM76.4871 23.584C76.7111 22.576 77.4631 22.176 78.3111 22.176C79.2551 22.176 79.9911 22.704 80.0551 23.584H76.4871ZM87.4068 28.144C89.4868 28.144 91.3588 26.992 91.3588 24.8C91.3588 22.928 89.9028 22.048 88.2388 21.584L87.0068 21.232C85.8548 20.912 85.7748 20.336 85.7748 20.064C85.7748 19.328 86.4308 18.8 87.2948 18.8C88.2548 18.8 88.7988 19.408 88.7988 20.192H91.0228C91.0228 18.096 89.4228 16.832 87.3428 16.832C85.2308 16.832 83.5348 18.144 83.5348 20.112C83.5348 21.104 83.9668 22.56 86.3828 23.2L87.7268 23.584C88.6708 23.872 89.1188 24.304 89.1188 24.912C89.1188 25.696 88.4628 26.208 87.4708 26.208C86.4468 26.208 85.6788 25.552 85.6628 24.752H83.4388C83.4388 26.704 85.0548 28.144 87.4068 28.144ZM96.7193 28.144C98.0793 28.144 99.1673 27.52 99.8713 26.544L98.3033 25.44C97.9673 25.904 97.3433 26.192 96.7352 26.192C95.5513 26.192 94.7513 25.344 94.7513 24.24C94.7513 23.152 95.5513 22.304 96.7352 22.304C97.3433 22.304 97.9673 22.592 98.3033 23.056L99.8713 21.952C99.1673 20.992 98.0793 20.352 96.7193 20.352C94.5433 20.352 92.6233 21.872 92.6233 24.24C92.6233 26.608 94.5433 28.144 96.7193 28.144ZM105.641 20.352C104.713 20.352 103.865 20.88 103.449 22.128V20.544H101.368V28H103.465V25.44C103.465 23.312 104.201 22.32 105.273 22.32C105.529 22.32 105.897 22.352 106.345 22.592L106.825 20.592C106.489 20.416 106.041 20.352 105.641 20.352ZM109.002 19.216C109.738 19.216 110.33 18.656 110.33 17.952C110.33 17.248 109.738 16.704 109.002 16.704C108.282 16.704 107.674 17.248 107.674 17.952C107.674 18.656 108.282 19.216 109.002 19.216ZM107.962 28H110.058V20.544H107.962V28ZM116.661 20.352C115.813 20.352 114.789 20.688 114.261 21.44V20.544H112.165V31.664H114.261V27.072C114.789 27.824 115.813 28.144 116.661 28.144C118.581 28.144 120.325 26.656 120.325 24.256C120.325 21.856 118.581 20.352 116.661 20.352ZM116.261 26.176C115.285 26.176 114.325 25.408 114.325 24.256C114.325 23.12 115.237 22.32 116.261 22.32C117.317 22.32 118.181 23.168 118.181 24.256C118.181 25.36 117.317 26.176 116.261 26.176ZM126.253 20.544H124.669V17.808H122.573V20.544H121.213V22.16H122.573V28H124.669V22.16H126.253V20.544Z" fill="white"/>
<defs>
<linearGradient id="paint0_linear" x1="6.17255" y1="24" x2="143.203" y2="24" gradientUnits="userSpaceOnUse">
<stop stop-color="#0058CC"/>
<stop offset="1" stop-color="#007ACC"/>
</linearGradient>
</defs>
</svg>
