<svg width="143" height="48" viewBox="0 0 143 48" fill="none" xmlns="http://www.w3.org/2000/svg">
<path d="M0 24C0 10.7452 10.7452 0 24 0H119C132.255 0 143 10.7452 143 24V24C143 37.2548 132.255 48 119 48H24C10.7452 48 0 37.2548 0 24V24Z" fill="url(#paint0_linear)"/>
<path d="M10.3752 24V38H38.3752V10H10.3752V24ZM32.9388 22.88C33.6094 23.0356 34.2189 23.3864 34.6904 23.888C34.95 24.1582 35.1757 24.4591 35.3624 24.784C35.3624 24.8198 34.1528 25.6374 33.4159 26.0944C33.389 26.1123 33.2815 25.9958 33.1628 25.8189C33.0282 25.5867 32.8371 25.3925 32.6071 25.2542C32.3772 25.1159 32.116 25.0382 31.8479 25.0282C30.9989 24.9699 30.4524 25.4157 30.4568 26.1482C30.4498 26.3305 30.4916 26.5115 30.5778 26.6723C30.7637 27.0598 31.1109 27.2906 32.1996 27.761C34.2044 28.6234 35.0623 29.1923 35.5954 30.001C36.1912 30.897 36.3234 32.344 35.9202 33.4147C35.4722 34.5795 34.3746 35.3702 32.8223 35.6323C32.1133 35.7135 31.3969 35.706 30.6898 35.6099C29.6106 35.4349 28.6151 34.921 27.8472 34.1427C27.5896 33.8582 27.0879 33.1168 27.1192 33.063C27.201 33.0023 27.2871 32.9477 27.3768 32.8995L28.4072 32.3082L29.2114 31.8422L29.3794 32.0909C29.6629 32.4965 30.0238 32.8421 30.4412 33.1078C31.3372 33.5782 32.5602 33.5133 33.165 32.969C33.3681 32.7695 33.4947 32.5051 33.523 32.2219C33.5512 31.9387 33.4792 31.6545 33.3196 31.4189C33.0956 31.1075 32.6476 30.8454 31.3954 30.2989C29.9506 29.6762 29.3279 29.2909 28.7589 28.6771C28.4037 28.2721 28.1415 27.7943 27.9906 27.2771C27.8781 26.6863 27.8614 26.0812 27.9413 25.4851C28.2392 24.0896 29.2853 23.1152 30.813 22.8262C31.5205 22.7387 32.2371 22.7583 32.9388 22.8845V22.88ZM26.3666 24.0538V25.2006H22.7311V35.5562H20.1528V25.1984H16.5084V24.0784C16.4986 23.6928 16.509 23.307 16.5397 22.9226C16.5532 22.9046 18.7797 22.8957 21.4677 22.9002H26.3532L26.3666 24.0538Z" fill="white"/>
<path d="M56.624 16.976H48.32V18.944H51.36V28H53.584V18.944H56.624V16.976ZM61.5595 20.544L59.8475 24.848L58.0875 20.544H55.7835L58.7275 27.296L56.9675 31.664H59.2075L63.8155 20.544H61.5595ZM69.427 20.352C68.579 20.352 67.555 20.688 67.027 21.44V20.544H64.931V31.664H67.027V27.072C67.555 27.824 68.579 28.144 69.427 28.144C71.347 28.144 73.091 26.656 73.091 24.256C73.091 21.856 71.347 20.352 69.427 20.352ZM69.027 26.176C68.051 26.176 67.091 25.408 67.091 24.256C67.091 23.12 68.003 22.32 69.027 22.32C70.083 22.32 70.947 23.168 70.947 24.256C70.947 25.36 70.083 26.176 69.027 26.176ZM82.1511 24.144C82.1511 21.856 80.4071 20.352 78.2791 20.352C76.1351 20.352 74.3111 21.856 74.3111 24.272C74.3111 26.576 75.9911 28.144 78.2791 28.144C79.5911 28.144 80.9031 27.632 81.6071 26.688L80.3751 25.456C79.9271 25.984 79.1751 26.288 78.4231 26.288C77.4151 26.288 76.7111 25.808 76.4871 24.944H82.1191C82.1351 24.608 82.1511 24.352 82.1511 24.144ZM76.4871 23.584C76.7111 22.576 77.4631 22.176 78.3111 22.176C79.2551 22.176 79.9911 22.704 80.0551 23.584H76.4871ZM87.4068 28.144C89.4868 28.144 91.3588 26.992 91.3588 24.8C91.3588 22.928 89.9028 22.048 88.2388 21.584L87.0068 21.232C85.8548 20.912 85.7748 20.336 85.7748 20.064C85.7748 19.328 86.4308 18.8 87.2948 18.8C88.2548 18.8 88.7988 19.408 88.7988 20.192H91.0228C91.0228 18.096 89.4228 16.832 87.3428 16.832C85.2308 16.832 83.5348 18.144 83.5348 20.112C83.5348 21.104 83.9668 22.56 86.3828 23.2L87.7268 23.584C88.6708 23.872 89.1188 24.304 89.1188 24.912C89.1188 25.696 88.4628 26.208 87.4708 26.208C86.4468 26.208 85.6788 25.552 85.6628 24.752H83.4388C83.4388 26.704 85.0548 28.144 87.4068 28.144ZM96.7193 28.144C98.0793 28.144 99.1673 27.52 99.8713 26.544L98.3033 25.44C97.9673 25.904 97.3433 26.192 96.7352 26.192C95.5513 26.192 94.7513 25.344 94.7513 24.24C94.7513 23.152 95.5513 22.304 96.7352 22.304C97.3433 22.304 97.9673 22.592 98.3033 23.056L99.8713 21.952C99.1673 20.992 98.0793 20.352 96.7193 20.352C94.5433 20.352 92.6233 21.872 92.6233 24.24C92.6233 26.608 94.5433 28.144 96.7193 28.144ZM105.641 20.352C104.713 20.352 103.865 20.88 103.449 22.128V20.544H101.368V28H103.465V25.44C103.465 23.312 104.201 22.32 105.273 22.32C105.529 22.32 105.897 22.352 106.345 22.592L106.825 20.592C106.489 20.416 106.041 20.352 105.641 20.352ZM109.002 19.216C109.738 19.216 110.33 18.656 110.33 17.952C110.33 17.248 109.738 16.704 109.002 16.704C108.282 16.704 107.674 17.248 107.674 17.952C107.674 18.656 108.282 19.216 109.002 19.216ZM107.962 28H110.058V20.544H107.962V28ZM116.661 20.352C115.813 20.352 114.789 20.688 114.261 21.44V20.544H112.165V31.664H114.261V27.072C114.789 27.824 115.813 28.144 116.661 28.144C118.581 28.144 120.325 26.656 120.325 24.256C120.325 21.856 118.581 20.352 116.661 20.352ZM116.261 26.176C115.285 26.176 114.325 25.408 114.325 24.256C114.325 23.12 115.237 22.32 116.261 22.32C117.317 22.32 118.181 23.168 118.181 24.256C118.181 25.36 117.317 26.176 116.261 26.176ZM126.253 20.544H124.669V17.808H122.573V20.544H121.213V22.16H122.573V28H124.669V22.16H126.253V20.544Z" fill="white"/>
<defs>
<linearGradient id="paint0_linear" x1="6.17255" y1="24" x2="143.203" y2="24" gradientUnits="userSpaceOnUse">
<stop stop-color="#0058CC"/>
<stop offset="1" stop-color="#007ACC"/>
</linearGradient>
</defs>
</svg>
